<svg width="126" height="48" viewBox="0 0 126 48" fill="none" xmlns="http://www.w3.org/2000/svg">
<path fill-rule="evenodd" clip-rule="evenodd" d="M0.916775 15.2609L0.969391 30.5217L4.10378 30.5785L7.23816 30.6352V29.3966C7.23816 28.7155 7.29798 28.1581 7.37094 28.1581C7.44411 28.1581 7.93965 28.5657 8.47219 29.0639C10.33 30.8017 12.4813 31.424 15.2897 31.036C20.4737 30.3201 23.8792 25.8378 23.8792 19.7312C23.8792 13.5767 20.4447 8.93454 15.35 8.20284C12.7084 7.82363 9.58104 8.8065 8.29276 10.4212C7.99535 10.7938 7.68253 11.0988 7.59785 11.0988C7.51317 11.0988 7.4437 8.60158 7.4437 5.54941V0H4.15393H0.863953L0.916775 15.2609ZM25.4279 1.23361C24.7496 1.43873 23.1619 1.90509 21.8997 2.27012C20.5434 2.66228 19.6349 3.0271 19.6789 3.16234C19.7198 3.28833 19.9455 4.0562 20.1806 4.86888L20.6077 6.34647L21.6508 6.03673C22.2244 5.86634 22.742 5.77529 22.8012 5.83428C22.8602 5.89347 24.2444 10.5936 25.8772 16.2791C27.5099 21.9648 29.0294 27.0328 29.2537 27.5415C29.4781 28.0502 30.0039 28.8242 30.4221 29.2616C32.1953 31.1153 34.2745 31.3169 38.1597 30.0116C39.4993 29.5617 40.6359 29.1531 40.6851 29.1038C40.7541 29.0349 38.9863 24.5701 38.7816 24.2963C38.7574 24.2636 38.0725 24.4211 37.26 24.6463C35.6207 25.1006 35.0115 25.0048 34.4934 24.2108C34.3242 23.9514 32.8809 19.2071 31.2864 13.668C29.6919 8.12885 28.203 2.97263 27.9777 2.20949C27.5095 0.62215 27.483 0.611873 25.4279 1.23361ZM50.0919 8.22113C47.4405 8.59151 44.6075 10.042 43.0261 11.8383C41.2663 13.8378 40.135 16.8848 40.127 19.6469C40.1229 21.0898 40.7179 23.6111 41.3674 24.9043C44.2531 30.6485 51.8936 32.8827 57.9022 29.7393C60.4672 28.3971 62.7039 25.5491 63.4538 22.6697C63.8499 21.1488 63.8456 18.0915 63.4452 16.5541C62.463 12.7827 59.2178 9.5234 55.4748 8.54855C53.9812 8.15947 51.5792 8.01334 50.0919 8.22113ZM75.4753 8.22854C73.6734 8.47086 71.6121 9.30574 70.1392 10.3899C64.0162 14.8975 64.1407 24.6007 70.3781 28.9811C72.4942 30.4673 74.5325 31.0857 77.3251 31.0894C81.0562 31.0941 83.6066 30.1088 85.9631 27.7526C88.219 25.4964 89.246 22.9552 89.246 19.6285C89.246 16.307 88.2258 13.7864 85.9575 11.5037C84.5122 10.0492 82.7843 9.02333 80.9943 8.55718C79.4474 8.15413 77.077 8.01314 75.4753 8.22854ZM102.811 8.29163C101.301 8.63898 100.47 9.10473 99.4048 10.2006L98.516 11.1148L98.4542 9.92501L98.3923 8.73518L95.3607 8.67824L92.3291 8.62152V19.6229V30.6245H95.5023H98.6755L98.7394 23.7905C98.7976 17.5811 98.8385 16.8907 99.1879 16.2371C100 14.7168 100.857 14.1623 102.411 14.1502C103.649 14.1407 104.591 14.6455 105.168 15.6277C105.56 16.2965 105.592 16.7717 105.689 23.4308L105.792 30.5217H108.977H112.163L112.266 23.5336C112.362 17.0194 112.397 16.4982 112.78 15.8477C113.561 14.5207 115.038 13.8569 116.484 14.1828C117.568 14.4274 118.217 14.9396 118.65 15.8935C119.007 16.6801 119.04 17.3246 119.044 23.6877L119.048 30.6245H122.23C125.405 30.6245 125.412 30.6235 125.534 30.138C125.601 29.8704 125.623 26.1478 125.583 21.8653C125.511 14.232 125.5 14.0548 125.02 12.8458C124.672 11.9686 124.17 11.2515 123.28 10.3614C121.6 8.68153 120.301 8.17818 117.61 8.16338C115.133 8.14982 113.773 8.63549 112.159 10.1108L111.023 11.1492L109.943 10.1283C108.17 8.45113 105.315 7.71593 102.811 8.29163ZM10.2184 14.3489C9.18765 14.8319 7.99042 16.1424 7.62601 17.1865C7.47288 17.6253 7.34854 18.7241 7.34956 19.6285C7.35182 21.6147 7.91088 23.0623 9.08571 24.1237C10.0922 25.033 11.0938 25.3448 12.6834 25.2436C14.4512 25.131 15.7012 24.3494 16.5682 22.8142C17.1644 21.7584 17.2065 21.5481 17.2065 19.6285C17.2065 17.7088 17.1644 17.4985 16.5682 16.4427C15.6554 14.8264 14.4396 14.1037 12.4992 14.0238C11.4062 13.9787 10.8344 14.0603 10.2184 14.3489ZM49.8864 14.36C47.9827 15.2278 46.93 16.7896 46.7518 19.01C46.4036 23.3457 49.7444 26.2327 53.7284 25.0389C55.786 24.4225 57.2455 22.1775 57.2455 19.6285C57.2455 17.0794 55.786 14.8344 53.7284 14.218C52.5495 13.8647 50.8337 13.9282 49.8864 14.36ZM75.1524 14.4657C73.2555 15.3488 72.1868 17.2095 72.1868 19.6285C72.1868 22.9809 74.3171 25.2765 77.4279 25.2765C80.5834 25.2765 82.7146 22.9867 82.7146 19.596C82.7146 17.7536 82.054 16.2115 80.8083 15.1449C79.3241 13.8747 77.0166 13.5975 75.1524 14.4657ZM60.4714 42.1344V47.8893L62.9891 47.8881C64.374 47.8875 65.8563 47.79 66.2832 47.6714C68.732 46.9913 69.5605 44.1862 67.8375 42.4086C67.4196 41.9773 67.2392 41.6493 67.3711 41.5601C68.3203 40.9195 68.5772 39.0247 67.8716 37.8677C67.0887 36.5833 66.4664 36.3811 63.2974 36.3803L60.4714 36.3794V42.1344ZM72.0293 42.0781L72.084 47.7865H75.4753H78.8666L78.9309 47.1186L78.9955 46.4506H76.3104H73.6255V44.6074V42.7639L76.0405 42.7062L78.4555 42.6482V42.0316V41.415L76.0405 41.357L73.6255 41.2993V39.5648V37.8305L76.2461 37.773L78.8666 37.7154V37.0988V36.4822L75.4206 36.4259L71.9747 36.3694L72.0293 42.0781ZM85.0805 37.7569C82.9035 43.404 81.4358 47.3775 81.4358 47.6242C81.4358 47.8289 81.6341 47.8963 82.1038 47.8509C82.7859 47.7851 83.1524 47.3068 83.6802 45.7929L83.8808 45.2174H86.5151H89.1497L89.5291 46.2964C90.0127 47.6714 90.1977 47.8893 90.8813 47.8893C91.8541 47.8893 92.0148 48.5209 89.0761 40.7984L87.4337 36.4822L86.5264 36.421L85.619 36.3599L85.0805 37.7569ZM94.0103 40.8498C94.0728 45.0978 94.0995 45.358 94.5488 46.0806C96.1797 48.7032 100.698 48.6208 102.235 45.9402C102.681 45.1621 102.712 44.8632 102.778 40.747L102.847 36.3794H102.018H101.19L101.127 40.7941L101.064 45.209L100.501 45.7715C100.018 46.2545 99.7346 46.3456 98.4998 46.4154C97.0851 46.4954 97.0493 46.4847 96.3394 45.7748L95.6176 45.053V40.7162V36.3794H94.7811H93.9445L94.0103 40.8498ZM105.522 37.0474L105.586 37.7154L107.278 37.775L108.97 37.8346L109.025 42.8106L109.08 47.7865L109.748 47.8509L110.416 47.9154V42.8667V37.8182H112.163H113.91V37.0988V36.3794H109.684H105.457L105.522 37.0474ZM117.815 39.7712L119.857 43.1629L119.915 45.4747L119.973 47.7865H120.59H121.207L121.309 45.4229L121.412 43.0593L123.177 40.1818C125.723 36.0294 125.591 36.3794 124.608 36.3794H123.781L122.288 38.9428C121.467 40.3528 120.728 41.5089 120.646 41.512C120.564 41.5151 119.824 40.3633 119.002 38.9521L117.507 36.3866L116.64 36.3829L115.774 36.3794L117.815 39.7712ZM61.9101 39.5652V41.3122L63.6057 41.3092C64.5479 41.3075 65.5269 41.192 65.8091 41.0494C66.9198 40.4872 67.1189 39.1219 66.2212 38.2241C65.874 37.877 65.5328 37.8182 63.8627 37.8182H61.9101V39.5652ZM85.4727 40.8453C84.9471 42.2891 84.5175 43.5396 84.518 43.6245C84.5184 43.7094 85.4346 43.7786 86.554 43.7786H88.5894L87.5812 41.072C87.0267 39.5833 86.5404 38.3326 86.5005 38.2927C86.4607 38.2529 85.9982 39.4014 85.4727 40.8453ZM62.0472 42.6825C61.9717 42.7578 61.9101 43.6448 61.9101 44.6538V46.488L64.0863 46.4179C66.177 46.3505 66.2822 46.3252 66.7582 45.7711C67.6451 44.7395 67.3395 43.3487 66.1137 42.8363C65.4079 42.5415 62.3055 42.4242 62.0472 42.6825Z" fill="#FF5548"/>
</svg>
