<svg width="180" height="20" viewBox="0 0 180 20" fill="none" xmlns="http://www.w3.org/2000/svg">
<path fill-rule="evenodd" clip-rule="evenodd" d="M90.3232 0.0719252C89.0903 0.306689 88.2416 0.729176 87.429 1.51249C86.7598 2.15756 86.4068 2.68204 86.1319 3.43951C85.7349 4.53349 85.7878 5.91316 86.2658 6.9332C86.7225 7.90793 87.4241 8.66737 88.6449 9.50885C89.1705 9.87111 90.4754 10.6511 91.8804 11.4427C94.1013 12.694 94.5731 13.0062 95.1306 13.593C95.5043 13.9864 95.7647 14.4144 95.9456 14.9325C96.1177 15.4255 96.1174 16.1362 95.9448 16.6304C95.7826 17.0951 95.6255 17.3518 95.2729 17.7288C94.7662 18.2704 94.2537 18.5578 93.4264 18.7642C92.8153 18.9167 91.7202 18.9146 91.0184 18.7598C89.9638 18.527 89.0269 18.0582 88.3137 17.4064C87.503 16.6655 87.0283 15.6573 86.6789 13.9343L86.5719 13.4069H86.3137H86.0556L86.0433 16.7034L86.031 20H86.2965C86.4678 20 86.5682 19.9787 86.5794 19.9401C86.589 19.9071 86.6225 19.7547 86.654 19.6014C86.7241 19.2598 86.9194 19.0182 87.1915 18.9367C87.4592 18.8565 87.8476 18.9306 88.8955 19.2616C91.015 19.931 91.2463 19.976 92.5528 19.973C93.5543 19.9707 94.0697 19.8983 94.8065 19.6565C95.6952 19.3648 96.4241 18.9145 97.0875 18.2469C97.7681 17.562 98.2017 16.8361 98.4404 15.9819C98.5584 15.5594 98.5704 15.4417 98.5704 14.7015C98.5703 13.7723 98.495 13.401 98.1587 12.6727C97.4955 11.2362 96.5697 10.4778 93.3201 8.7088C90.7531 7.31143 89.6463 6.593 88.9017 5.84104C88.3072 5.24061 88.0241 4.45534 88.1402 3.7286C88.319 2.6094 89.1337 1.71273 90.3475 1.29921C90.7452 1.16375 91.7528 1.11393 92.3028 1.20263C93.1084 1.33248 93.9769 1.70448 94.6609 2.21261C95.7074 2.98993 96.3671 4.1837 96.6751 5.85692C96.7307 6.159 96.7866 6.45471 96.7992 6.51402C96.8197 6.60997 96.8513 6.62191 97.0851 6.62191H97.3479V3.31095V0L97.078 0.0143815L96.8081 0.0287689L96.6959 0.36442C96.5095 0.922463 96.1355 1.16787 95.637 1.05912C95.5099 1.03141 95.0499 0.866264 94.6147 0.692157C94.1796 0.51805 93.5322 0.299974 93.1762 0.207622C92.562 0.0481878 92.4811 0.0387892 91.5938 0.0238287C90.9529 0.012992 90.5532 0.0280988 90.3232 0.0719252ZM127.94 0.125723C127.897 0.237447 126.15 4.33023 123.672 10.1223C123.204 11.2167 122.439 13.0077 121.972 14.1021C120.745 16.9783 120.467 17.5333 119.903 18.2354C119.592 18.6219 119.267 18.797 118.569 18.9541L118.11 19.0574V19.3129V19.5684H121.131H124.152V19.3148V19.0612L123.557 18.98C122.822 18.8797 122.506 18.7659 122.245 18.5081C121.996 18.261 121.926 18.0565 121.961 17.6784C122.003 17.2283 122.173 16.7601 122.965 14.9173L123.697 13.2151H127.433H131.168L131.498 14.0062C131.679 14.4414 131.869 14.8945 131.92 15.0132C132.722 16.8733 132.954 17.6686 132.832 18.13C132.756 18.4125 132.407 18.7568 132.083 18.8677C131.954 18.912 131.638 18.9731 131.38 19.0034L130.913 19.0586V19.3135V19.5684H134.701H138.489V19.3143V19.0602L138.078 19.0008C136.925 18.834 136.372 18.3513 135.641 16.8736C135.351 16.2884 134.452 14.1921 133.526 11.9444C133.466 11.7993 133.272 11.3354 133.095 10.9134C132.918 10.4915 132.724 10.0276 132.664 9.88252C132.604 9.73747 131.989 8.2702 131.297 6.62191C129.6 2.57674 129.191 1.60163 129.088 1.3474C129.04 1.22872 128.895 0.88348 128.766 0.580195L128.531 0.0287689L128.259 0.0143815C128.004 0.00085959 127.984 0.00776544 127.94 0.125723ZM0.00909424 0.6421V0.902226L0.644433 0.927881C1.15832 0.948643 1.34153 0.976265 1.60276 1.07236C2.36963 1.35445 2.58742 1.70559 2.69425 2.83184C2.76018 3.52755 2.75884 16.5632 2.69272 17.2258C2.62482 17.9063 2.54216 18.1673 2.31152 18.4293C1.92096 18.873 1.44165 19.0391 0.548533 19.0403L0.00909424 19.041V19.3047V19.5684H4.10883H8.20857V19.3047V19.041H7.65949C6.99965 19.041 6.69387 18.983 6.32288 18.7874C5.83115 18.5282 5.63561 18.1964 5.52571 17.4347C5.49699 17.2356 5.47694 15.7805 5.47637 13.8578L5.47541 10.6166L5.82305 10.6837C7.18723 10.9471 8.68347 11.0476 9.68294 10.9429C11.1657 10.7877 12.3543 10.2516 13.2224 9.34682C14.1523 8.37765 14.5949 7.21367 14.596 5.73483C14.597 4.3473 14.1963 3.33287 13.2605 2.35334C12.2255 1.27005 11.0951 0.760155 9.15199 0.500169C8.66064 0.43443 7.89061 0.418894 4.28864 0.402016L0.00909424 0.381968V0.6421ZM16.3601 0.645167V0.901892L16.9475 0.928361C17.4224 0.949699 17.6038 0.979811 17.8945 1.08545C18.5553 1.32558 18.8398 1.59501 18.984 2.11733C19.064 2.40738 19.0693 2.88401 19.0693 9.9065C19.0693 17.9587 19.0769 17.7055 18.8173 18.2258C18.7137 18.4334 18.6223 18.532 18.3881 18.689C18.0065 18.9449 17.5973 19.041 16.8901 19.041H16.3601V19.3047V19.5684H20.4598H24.5596V19.3047V19.041L24.0681 19.0403C23.4979 19.0395 23.088 18.9549 22.701 18.7581C22.3657 18.5876 22.1277 18.3616 22.0135 18.1051C21.8319 17.6974 21.8198 17.1194 21.8375 9.7147C21.8529 3.30889 21.8627 2.53718 21.9329 2.25154C22.0409 1.81146 22.171 1.57756 22.4226 1.37142C22.7659 1.09005 23.2245 0.956463 23.9482 0.926973L24.5596 0.902085V0.645214V0.388395H20.4598H16.3601V0.645167ZM24.8952 0.643393V0.898439L25.4347 0.949076C26.0275 1.0047 26.5206 1.15008 27.0769 1.43328C27.3466 1.57056 27.5377 1.73104 28.0494 2.24982L28.6862 2.89552L28.6698 10.1891C28.6554 16.5767 28.6441 17.5194 28.5791 17.7786C28.4324 18.3638 28.1462 18.6878 27.5874 18.9017C27.3778 18.9819 27.1651 19.0121 26.6454 19.0351L25.9741 19.065L25.9596 19.3167L25.9451 19.5684H29.3041H32.6631V19.3047V19.041H32.1445C31.2669 19.041 30.7819 18.8972 30.3952 18.5224C30.1612 18.2954 30.0425 17.9105 29.9785 17.1709C29.9169 16.4591 29.9126 4.49571 29.9739 4.53363C29.9981 4.54855 30.4899 5.13781 31.0668 5.84311C31.6438 6.54836 34.0771 9.5205 36.4743 12.4479C38.8715 15.3752 41.2225 18.25 41.6988 18.8362L42.5648 19.902L42.8286 19.8911L43.0923 19.8801L43.1164 11.1052C43.1394 2.74428 43.1447 2.31796 43.2289 2.06665C43.354 1.69321 43.4721 1.51982 43.7306 1.33004C44.0913 1.0653 44.4838 0.957083 45.1901 0.927594L45.8015 0.902085V0.645214V0.388395H42.4689H39.1364V0.652121V0.915846L39.556 0.916233C40.7222 0.91724 41.4553 1.26943 41.649 1.92179C41.8154 2.48214 41.8248 2.88362 41.8112 8.84761L41.7976 14.7415L40.3137 12.9234C39.4976 11.9234 38.2581 10.404 37.5593 9.54687C36.8605 8.68976 36.0595 7.70798 35.7794 7.36514C35.4993 7.0223 34.6895 6.02973 33.9799 5.15943C33.2704 4.28914 32.3548 3.16629 31.9452 2.66425C31.5357 2.16221 30.9525 1.44522 30.6492 1.07096L30.0978 0.390502L27.4965 0.389448L24.8952 0.388395V0.643393ZM46.7125 0.652121V0.915846L47.1081 0.916233C47.9626 0.917 48.5882 1.1146 48.9963 1.51264C49.4584 1.96327 49.4191 1.23356 49.4355 9.66675C49.4454 14.8086 49.4338 17.1726 49.3973 17.4513C49.2962 18.2242 49.0714 18.5746 48.5129 18.8303C48.1701 18.9873 47.844 19.041 47.2335 19.041H46.7125V19.3047V19.5684H50.8123H54.912V19.3047V19.041L54.4205 19.0403C53.6195 19.0391 53.0665 18.8588 52.6301 18.4565C52.2059 18.0656 52.1701 17.6469 52.1888 13.3033L52.2028 10.035L55.5354 13.3273C58.9757 16.726 59.5708 17.3339 59.6959 17.5773C59.7363 17.6558 59.7782 17.8608 59.7892 18.0329C59.8118 18.3901 59.7352 18.5602 59.4593 18.7651C59.2444 18.9248 59.0317 18.9906 58.6164 19.0257L58.2685 19.055V19.3118V19.5684H62.8502H67.432L67.4175 19.3185L67.403 19.0685L66.8995 18.986C65.9719 18.834 65.0402 18.4532 64.2187 17.8906C63.2764 17.2452 62.8837 16.8712 56.8182 10.842L54.9122 8.94749L57.969 5.89087C59.6501 4.20973 61.209 2.68209 61.4332 2.49609C62.5767 1.5474 63.6053 1.04282 64.6099 0.937761L64.8856 0.908939V0.648667V0.388395H61.3613H57.837V0.64488V0.901412L58.3393 0.929847C58.9144 0.962406 59.1837 1.05668 59.3849 1.29585C59.5446 1.48554 59.5822 1.62416 59.5506 1.90491C59.4837 2.49868 58.9574 3.16466 57.0516 5.06675C55.8929 6.2233 53.0824 8.87638 52.362 9.49365L52.1723 9.6562L52.1917 6.08919C52.2128 2.20657 52.2212 2.08132 52.4883 1.67787C52.7763 1.24262 53.4642 0.964897 54.3486 0.926921L54.912 0.902659V0.645553V0.388395H50.8123H46.7125V0.652121ZM75.099 0.652121V0.915846L75.4946 0.916233C76.6616 0.917288 77.5076 1.33838 77.7096 2.0187C77.864 2.53848 77.8863 3.7625 77.8664 10.5815C77.8455 17.7244 77.8487 17.6338 77.6056 18.1834C77.4978 18.427 77.2527 18.6579 76.9313 18.8185C76.6032 18.9824 76.4877 19.0041 75.7703 19.0361L75.123 19.065L75.1085 19.3167L75.094 19.5684H79.2202H83.3464V19.3047V19.041L82.831 19.0403C82.0414 19.0392 81.4817 18.8697 81.0677 18.5062C80.8388 18.3052 80.7241 18.0678 80.6503 17.6424C80.5607 17.1262 80.5615 2.96082 80.6511 2.47423C80.7514 1.92942 80.8403 1.71498 81.0579 1.49283C81.4461 1.09647 82.0206 0.916952 82.9029 0.916233L83.3464 0.915846V0.652121V0.388395H79.2227H75.099V0.652121ZM100.752 0.652121V0.915846L101.196 0.916233C101.792 0.916712 102.204 0.988442 102.55 1.15162C103.079 1.40101 103.275 1.683 103.419 2.40541C103.492 2.76945 103.502 3.45922 103.52 9.30712C103.533 13.4792 103.522 16.1218 103.49 16.6914C103.416 18.0015 103.283 18.3706 102.764 18.7057C102.383 18.9522 102.173 19.0031 101.436 19.0291L100.752 19.0531V19.3108V19.5684H108.183H115.614L115.805 18.9571C115.91 18.6209 116.277 17.4516 116.621 16.3588C116.964 15.2659 117.237 14.3633 117.226 14.353C117.216 14.3426 117.108 14.3305 116.985 14.326L116.763 14.3179L116.463 14.9652C115.758 16.4868 115.013 17.3735 114.021 17.873C113.322 18.2252 112.614 18.319 110.39 18.3538C108.676 18.3807 107.389 18.3304 107.01 18.2218C106.9 18.1901 106.735 18.0829 106.621 17.9686C106.463 17.8105 106.405 17.7023 106.335 17.4347C106.252 17.1181 106.246 16.7145 106.231 10.338C106.221 6.12203 106.233 3.36466 106.262 3.01275C106.331 2.19592 106.425 1.90367 106.708 1.62042C107.139 1.18916 107.726 1.00129 108.844 0.936368L109.431 0.902278V0.645313V0.388395H105.092H100.752V0.652121ZM138.441 0.64402V0.899639L138.981 0.952529C139.565 1.00973 140.001 1.14092 140.575 1.43212C140.844 1.56878 141.036 1.72937 141.547 2.24594L142.184 2.88948L142.168 10.21C142.154 17.0697 142.147 17.5511 142.067 17.8562C141.96 18.2603 141.757 18.5358 141.413 18.7422C141.04 18.9659 140.895 18.9988 140.155 19.0276L139.496 19.0533V19.3109V19.5684H142.829H146.161V19.3047V19.041H145.642C145.017 19.041 144.639 18.9769 144.317 18.8158C143.848 18.5815 143.66 18.3138 143.534 17.7014C143.47 17.3869 143.457 16.4871 143.442 10.9254C143.432 7.39813 143.441 4.51345 143.462 4.51508C143.483 4.51671 144.746 6.04335 146.268 7.90755C147.791 9.7718 150.618 13.2282 152.551 15.5886L156.065 19.8801H156.328H156.59L156.616 11.1292C156.637 4.30731 156.656 2.33119 156.703 2.16442C156.947 1.29753 157.61 0.917288 158.88 0.916233L159.299 0.915846V0.652121V0.388395H155.967H152.634V0.652121V0.915846L153.054 0.916233C154.18 0.917192 154.894 1.23807 155.121 1.84469C155.329 2.39928 155.333 2.53685 155.354 8.76768C155.366 12.1561 155.356 14.7255 155.332 14.7255C155.289 14.7255 154.88 14.2279 149.402 7.50899C148.822 6.79693 147.914 5.68487 147.386 5.03774C146.857 4.3906 145.788 3.08003 145.01 2.12534L143.596 0.389595L141.018 0.388969L138.441 0.388395V0.64402ZM160.258 0.648527V0.915846L160.702 0.916133C161.535 0.916661 162.066 1.07063 162.461 1.42565C162.739 1.67547 162.858 1.97823 162.942 2.65313C163.007 3.1683 163.007 16.8594 162.943 17.3567C162.875 17.882 162.756 18.2081 162.545 18.4474C162.167 18.8769 161.689 19.0391 160.798 19.0403L160.258 19.041V19.3067V19.5725L165.425 19.5562C170.491 19.5403 170.605 19.5379 171.263 19.4334C174.757 18.8783 177.019 17.3859 178.473 14.6747C179.287 13.1582 179.684 11.0614 179.536 9.06737C179.348 6.52735 178.404 4.39866 176.771 2.83385C175.622 1.73316 174.296 1.09144 172.47 0.751761C170.764 0.434715 170.568 0.425367 165.113 0.402016L160.258 0.381201V0.648527ZM167.9 1.49436C167.433 1.53037 166.277 1.72405 165.905 1.82882L165.725 1.87936V10.0224V18.1654L166.216 18.2666C167.581 18.5475 169.123 18.6218 170.089 18.4529C171.644 18.1811 172.902 17.5282 173.996 16.4255C175.169 15.2434 175.864 13.8298 176.187 11.966C176.333 11.1217 176.347 9.00666 176.211 8.18029C175.982 6.78758 175.526 5.57348 174.87 4.61381C174.231 3.67868 173.185 2.76083 172.176 2.24838C171.406 1.8573 170.283 1.56394 169.274 1.49C168.608 1.44133 168.588 1.44138 167.9 1.49436ZM6.77006 1.56701C6.70413 1.57871 6.38589 1.63476 6.0628 1.69158L5.47541 1.79487V5.79223C5.47541 8.94644 5.48807 9.79429 5.53535 9.8117C5.75505 9.89259 6.86007 10.0363 7.44391 10.0599C7.99903 10.0824 8.21514 10.0718 8.50087 10.0082C9.60128 9.76341 10.5862 8.91254 11.0398 7.81477C11.2401 7.32999 11.3347 6.84948 11.3598 6.19036C11.4314 4.30084 10.6136 2.66703 9.26333 2.0022C8.64817 1.6993 8.17783 1.58446 7.46534 1.56303C7.14887 1.55353 6.83599 1.55531 6.77006 1.56701ZM125.84 8.21433C124.936 10.3255 124.205 12.0609 124.215 12.0709C124.224 12.0808 125.689 12.0833 127.47 12.0766L130.707 12.0643L129.11 8.23395C128.231 6.12726 127.506 4.39736 127.498 4.38974C127.49 4.38207 126.744 6.10314 125.84 8.21433Z" fill="#FEA1E8"/>
</svg>
