<svg width="12" height="12" viewBox="0 0 12 12" fill="none" xmlns="http://www.w3.org/2000/svg">
<path d="M0.264461 11.7351C-0.0875027 11.3832 -0.0875027 10.8125 0.264461 10.4606L10.4611 0.263973C10.813 -0.0879909 11.3837 -0.0879912 11.7356 0.263973C12.0876 0.615937 12.0876 1.18658 11.7356 1.53855L1.53904 11.7351C1.18707 12.0871 0.616425 12.0871 0.264461 11.7351Z" fill="#94A3B8"/>
<path d="M0.264464 0.264853C0.616428 -0.0871107 1.18707 -0.0871107 1.53904 0.264853L11.7356 10.4615C12.0876 10.8134 12.0876 11.3841 11.7356 11.736C11.3837 12.088 10.813 12.088 10.4611 11.736L0.264464 1.53943C-0.0874997 1.18746 -0.0874999 0.616818 0.264464 0.264853Z" fill="#94A3B8"/>
</svg>
