<svg width="32" height="32" viewBox="0 0 32 32" fill="none" xmlns="http://www.w3.org/2000/svg">
<path d="M27.9773 16.8066H15.1935V4.02272C15.1935 3.80945 15.1088 3.6046 14.9578 3.4539C14.8068 3.30292 14.6022 3.21818 14.389 3.21818C12.2657 3.21565 10.1684 3.6843 8.24834 4.59046C6.32828 5.49662 4.63309 6.81748 3.28523 8.45772C1.92589 10.1159 0.951312 12.055 0.431553 14.1356C-0.0878821 16.2158 -0.139513 18.3856 0.280856 20.4883C0.835083 23.2615 2.19811 25.8084 4.19776 27.808C6.19777 29.8078 8.7447 31.1708 11.5175 31.725C12.4559 31.9079 13.4097 32 14.3658 32C16.895 32.0061 19.381 31.345 21.5734 30.0833C23.7654 28.8216 25.586 27.0043 26.8517 24.8146C28.117 22.6246 28.7827 20.1397 28.7812 17.6105C28.7812 17.3972 28.6965 17.1927 28.5455 17.0417C28.3948 16.8907 28.19 16.806 27.9767 16.806L27.9773 16.8066Z" fill="#0065FF"/>
<path d="M17.6073 0C17.1631 0 16.8028 0.360318 16.8028 0.804531V14.393C16.8028 14.6062 16.8875 14.8108 17.0385 14.9618C17.1895 15.1128 17.3941 15.1975 17.6073 15.1975H31.1958C31.409 15.1975 31.6136 15.1128 31.7646 14.9618C31.9156 14.8108 32.0003 14.6062 32.0003 14.393C31.9961 10.5771 30.4782 6.91879 27.78 4.2205C25.0819 1.52221 21.4234 0.00438209 17.6076 0.0002154L17.6073 0Z" fill="#0065FF"/>
</svg>
