<svg width="27" height="19" viewBox="0 0 27 19" fill="none" xmlns="http://www.w3.org/2000/svg">
<path d="M24 0.5C25.6406 0.5 27 1.85938 27 3.5V15.5C27 17.1875 25.6406 18.5 24 18.5H3C1.3125 18.5 0 17.1875 0 15.5V3.5C0 1.85938 1.3125 0.5 3 0.5H24ZM6 15.5C6 13.8594 4.64062 12.5 3 12.5V15.5H6ZM3 6.5C4.64062 6.5 6 5.1875 6 3.5H3V6.5ZM24 15.5V12.5C22.3125 12.5 21 13.8594 21 15.5H24ZM24 3.5H21C21 5.1875 22.3125 6.5 24 6.5V3.5ZM13.5 14C15.9844 14 18 11.9844 18 9.5C18 7.01562 15.9844 5 13.5 5C10.9688 5 9 7.01562 9 9.5C9 11.9844 10.9688 14 13.5 14Z" fill="#0065FF"/>
</svg>
