<svg width="25" height="25" viewBox="0 0 25 25" fill="none" xmlns="http://www.w3.org/2000/svg">
<path d="M9.45312 11L9.5 16.25C9.5 17.0938 8.79688 17.75 8 17.75H7.25C5.5625 17.75 4.25 16.4375 4.25 14.75V12.5469C4.25 10.8594 5.5625 9.5 7.25 9.5H7.95312C8.75 9.5 9.45312 10.2031 9.45312 11ZM12.5 0.5C19.2031 0.5 24.2656 6.125 24.5 12.5V19.25C24.5 21.5469 22.625 23.375 20.375 23.375H15.1719C14.7969 24.0781 14.0469 24.5 13.25 24.5H11.7031C10.3438 24.5 9.26562 23.2812 9.5 21.8281C9.73438 20.75 10.7188 20 11.7969 20H13.25C14.0469 20 14.7969 20.4688 15.1719 21.125H20.375C21.4062 21.125 22.25 20.3281 22.25 19.25V12.5C22.25 7.15625 17.8438 2.79688 12.5 2.79688C7.10938 2.79688 2.75 7.15625 2.75 12.5V14.375C2.75 15.0312 2.14062 15.5 1.57812 15.5C0.96875 15.5 0.5 15.0312 0.5 14.375V12.5C0.6875 6.125 5.75 0.5 12.5 0.5ZM17.75 17.75H17C16.1562 17.75 15.5 17.0938 15.5 16.25V11.0469C15.5 10.2031 16.1562 9.5 17 9.5H17.75C19.3906 9.5 20.75 10.8594 20.75 12.5469V14.75C20.75 16.4375 19.3906 17.75 17.75 17.75Z" fill="#0065FF"/>
</svg>
