<svg width="25" height="25" viewBox="0 0 25 25" fill="none" xmlns="http://www.w3.org/2000/svg">
<path d="M15.5 5H9.5L7.25 1.67188C6.92188 1.20312 7.29688 0.5 7.85938 0.5H17.0938C17.6562 0.5 18.0312 1.20312 17.7031 1.67188L15.5 5ZM9.5 6.5H15.5C15.6406 6.64062 15.875 6.78125 16.0625 6.92188C18.7344 8.60938 24.5 12.2656 24.5 20C24.5 22.4844 22.4844 24.5 20 24.5H5C2.46875 24.5 0.5 22.4844 0.5 20C0.5 12.2656 6.21875 8.60938 8.89062 6.92188C9.07812 6.78125 9.3125 6.64062 9.5 6.5ZM13.4375 11C13.4375 10.4844 13.0156 10.0625 12.4531 10.0625C11.9375 10.0625 11.5156 10.4844 11.5156 11V11.2812C11.2812 11.375 11 11.4219 10.8125 11.5625C10.1094 11.8438 9.5 12.4531 9.3125 13.2969C9.26562 13.7656 9.3125 14.2344 9.5 14.6562C9.6875 15.0781 10.0156 15.3594 10.2969 15.5938C10.8594 15.9688 11.5625 16.1562 12.125 16.3438H12.2188C12.875 16.5781 13.2969 16.7188 13.5781 16.9062C13.7188 17 13.7656 17.0469 13.7656 17.0938C13.7656 17.1406 13.8125 17.2344 13.7656 17.4219C13.7656 17.5625 13.6719 17.7031 13.3906 17.8438C13.1094 17.9375 12.6406 17.9844 12.0312 17.8906C11.75 17.8438 11.2812 17.7031 10.8125 17.5625C10.7188 17.5156 10.625 17.4688 10.5312 17.4219C10.0156 17.2812 9.5 17.5625 9.35938 18.0312C9.17188 18.5469 9.45312 19.0625 9.92188 19.2031C9.96875 19.25 10.0625 19.25 10.1562 19.2969C10.4844 19.4375 11.0938 19.625 11.5156 19.7188V20C11.5156 20.5625 11.9375 20.9844 12.4531 20.9844C13.0156 20.9844 13.4375 20.5625 13.4375 20V19.7656C13.6719 19.7188 13.9062 19.625 14.1406 19.5312C14.8906 19.25 15.4531 18.6406 15.6406 17.75C15.6875 17.2344 15.6875 16.7656 15.5 16.3438C15.3125 15.9219 14.9844 15.6406 14.7031 15.4062C14.1406 14.9844 13.3438 14.75 12.7812 14.5625H12.7344C12.0781 14.375 11.6562 14.2344 11.375 14.0469C11.2344 13.9531 11.1875 13.9062 11.1875 13.8594C11.1875 13.8594 11.1406 13.8125 11.1875 13.625C11.1875 13.5312 11.2812 13.3906 11.5625 13.25C11.8438 13.1094 12.3125 13.0625 12.9219 13.1094C13.1094 13.1562 13.7656 13.2969 13.9062 13.3438C14.4219 13.4844 14.9375 13.1562 15.0781 12.6875C15.2188 12.1719 14.8906 11.6562 14.4219 11.5156C14.1875 11.4688 13.7188 11.375 13.4375 11.3281V11Z" fill="#0065FF"/>
</svg>
