<svg width="28" height="16" viewBox="0 0 28 16" fill="none" xmlns="http://www.w3.org/2000/svg">
<path d="M19 3C18.1562 3 17.5 2.34375 17.5 1.5C17.5 0.703125 18.1562 0 19 0H26.5C27.2969 0 28 0.703125 28 1.5V9C28 9.84375 27.2969 10.5 26.5 10.5C25.6562 10.5 25 9.84375 25 9V5.15625L17.0312 13.0781C16.4688 13.6875 15.4844 13.6875 14.9219 13.0781L9.95312 8.15625L3.53125 14.5781C2.96875 15.1875 1.98438 15.1875 1.42188 14.5781C0.8125 14.0156 0.8125 13.0312 1.42188 12.4688L8.92188 4.96875C9.48438 4.35938 10.4688 4.35938 11.0312 4.96875L16 9.89062L22.8438 3H19Z" fill="#0065FF"/>
</svg>
