<svg width="36" height="32" viewBox="0 0 36 32" fill="none" xmlns="http://www.w3.org/2000/svg">
<path d="M35.2308 26.4617V30.1539C35.2308 31.1719 34.4026 32 33.3847 32H2.61537C1.59742 32 0.769287 31.1718 0.769287 30.1539V26.4617C0.769287 25.4438 1.59749 24.6157 2.61537 24.6157H33.3847C34.4026 24.6157 35.2308 25.4439 35.2308 26.4617Z" fill="#0065FF"/>
<path d="M30.6337 10.4705C30.3366 8.6825 28.8056 7.3844 26.9918 7.3844H25.385V4.92271H29.6927C30.0324 4.92271 30.308 4.64713 30.308 4.30744V0.615269C30.308 0.275297 30.0324 0 29.6927 0H18.6158C18.2761 0 18.0005 0.275297 18.0005 0.615269V4.30744C18.0005 4.64713 18.2761 4.92271 18.6158 4.92271L22.9233 4.923V7.38469L9.00894 7.3844C7.19516 7.3844 5.66417 8.6825 5.3671 10.4699L3.4194 22.1535H32.5814L30.6337 10.4705ZM16.7692 17.8463C16.7692 18.186 16.4936 18.4616 16.1539 18.4616H8.76928C8.42959 18.4616 8.15401 18.186 8.15401 17.8463V11.6925C8.15401 11.3525 8.42959 11.0772 8.76928 11.0772H16.1539C16.4936 11.0772 16.7692 11.3525 16.7692 11.6925V17.8463ZM22.923 18.4619H20.4614V16.0002H22.923V18.4619ZM22.923 13.5386H20.4614V11.0769H22.923V13.5386ZM27.8461 18.4619H25.3844V16.0002H27.8461V18.4619ZM27.8461 13.5386H25.3844V11.0769H27.8461V13.5386Z" fill="#0065FF"/>
</svg>
