<svg width="64" height="48" viewBox="0 0 64 48" fill="none" xmlns="http://www.w3.org/2000/svg">
<g clip-path="url(#clip0_372_649)">
<mask id="mask0_372_649" style="mask-type:luminance" maskUnits="userSpaceOnUse" x="0" y="0" width="64" height="48">
<rect width="64" height="48" fill="white"/>
</mask>
<g mask="url(#mask0_372_649)">
<path fill-rule="evenodd" clip-rule="evenodd" d="M0 0V48H64V0H0Z" fill="#C51918"/>
<mask id="mask1_372_649" style="mask-type:luminance" maskUnits="userSpaceOnUse" x="0" y="0" width="64" height="48">
<path fill-rule="evenodd" clip-rule="evenodd" d="M0 0V48H64V0H0Z" fill="white"/>
</mask>
<g mask="url(#mask1_372_649)">
<path fill-rule="evenodd" clip-rule="evenodd" d="M31.9638 35.7336C32.1783 35.7336 32.3914 35.728 32.6031 35.717L33.8372 39.6525L34.1231 35.5408C34.536 35.4662 34.9415 35.3705 35.3384 35.255L37.4543 38.8022L36.7762 34.7345C37.1585 34.5677 37.5303 34.3817 37.8904 34.1776L40.7762 37.1474L39.1692 33.341C39.5009 33.0924 39.8192 32.827 40.1228 32.5461L43.6238 34.7774L41.1747 31.4406C41.4397 31.1239 41.6884 30.7933 41.9195 30.4501L45.8437 31.8199L42.6871 29.1353C42.8713 28.7671 43.0368 28.3881 43.1824 27.9994L47.316 28.4343L43.6219 26.545C43.7147 26.1458 43.7873 25.739 43.8383 25.3256L47.9615 24.8033L43.9277 23.8098C43.9257 23.392 43.902 22.9793 43.8575 22.5727L47.7454 21.1224L43.5957 21.0785C43.4973 20.6729 43.3778 20.2755 43.2385 19.8873L46.6792 17.5902L42.6351 18.4958C42.4449 18.1247 42.2356 17.7648 42.0084 17.4175L44.8206 14.3971L41.098 16.2024C40.8271 15.8851 40.5397 15.5821 40.2371 15.2946L42.2696 11.7152L39.0712 14.32C38.734 14.0726 38.3833 13.8424 38.0202 13.6306L39.1639 9.68911L36.6616 12.9498C36.2759 12.7863 35.8798 12.6423 35.4746 12.5191L35.6707 8.42805L33.9953 12.1704C33.5832 12.1005 33.164 12.0515 32.7387 12.0245L31.9786 8L31.2188 12.0226C30.7927 12.0486 30.3726 12.0967 29.9598 12.1657L28.2864 8.42805L28.4821 12.5103C28.0745 12.6331 27.6762 12.7769 27.2883 12.9403L24.7933 9.68911L25.9326 13.6159C25.5662 13.8285 25.2122 14.0598 24.8719 14.3086L21.6875 11.7152L23.7097 15.2765C23.4033 15.5662 23.1123 15.8719 22.8382 16.1923L19.1365 14.3971L21.9314 17.3989C21.7007 17.7501 21.4883 18.1142 21.2955 18.4899L17.2779 17.5902L20.6948 19.8714C20.553 20.2647 20.4316 20.6676 20.3318 21.0788L16.2117 21.1224L20.0712 22.5622C20.0258 22.9745 20.0016 23.3932 19.9999 23.8171L15.9956 24.8033L20.0888 25.3218C20.1405 25.7411 20.2142 26.1538 20.3089 26.5584L16.6411 28.4343L20.7463 28.0024C20.894 28.3962 21.0621 28.7801 21.2494 29.1529L18.1135 31.8199L22.0137 30.4584C22.2479 30.8054 22.5 31.1395 22.7687 31.4593L20.3333 34.7774L23.8169 32.5573C24.1236 32.8403 24.4454 33.1076 24.7809 33.3578L23.1809 37.1474L26.0562 34.1884C26.419 34.3931 26.7937 34.5796 27.1789 34.7465L26.5028 38.8022L28.6144 35.2623C29.0129 35.3773 29.42 35.4724 29.8344 35.5462L30.1199 39.6525L31.3536 35.7184C31.5557 35.7285 31.7592 35.7336 31.9638 35.7336ZM40.9644 23.8313C40.9644 28.8009 36.9027 32.8296 31.8923 32.8296C26.882 32.8296 22.8203 28.8009 22.8203 23.8313C22.8203 18.8617 26.882 14.833 31.8923 14.833C36.9027 14.833 40.9644 18.8617 40.9644 23.8313ZM38.2203 26.7623C38.5989 25.9113 38.8092 24.969 38.8092 23.9776C38.8092 23.0089 38.6084 22.0871 38.2461 21.2516C36.6805 21.3629 35.3533 21.775 34.2767 22.3024C36.6664 23.3475 37.7474 25.0681 38.2203 26.7623ZM37.4494 28.0775C37.2538 28.3393 37.0401 28.5867 36.8099 28.8178C36.6822 26.4569 35.6724 24.6567 33.8616 22.7147C36.1035 23.7893 37.3682 26.3567 37.4494 28.0775ZM35.7328 29.6999C35.6061 29.7839 35.4764 29.8637 35.3439 29.9393C34.8055 27.2861 33.7859 25.1927 32.3668 23.5198L32.7107 23.2604C32.7565 23.2259 32.8032 23.1914 32.8507 23.157C34.6666 25.2453 35.8121 27.0369 35.7328 29.6999ZM31.9507 30.8361C32.7557 30.8361 33.5282 30.6974 34.2458 30.4427C33.7245 27.9183 32.8163 25.5671 31.5019 23.8705C29.9311 25.7404 29.1319 27.8533 29.1024 30.2184C29.9699 30.615 30.9345 30.8361 31.9507 30.8361ZM30.6312 23.0582C30.6858 23.1009 30.7379 23.1435 30.7875 23.1857C29.1144 25.0886 28.199 27.2343 28.0431 29.6147C27.8377 29.4721 27.6405 29.3185 27.4522 29.1548C28.0827 26.638 29.128 24.5616 30.6312 23.0582ZM25.6355 21.2979C27.2076 21.4749 28.4486 21.8572 29.3785 22.2997C27.0081 23.3069 26.0747 24.9298 25.6053 26.5849C25.2746 25.7811 25.0923 24.9007 25.0923 23.9776C25.0923 23.0268 25.2858 22.1211 25.6355 21.2979ZM26.4965 28.1363C26.4437 28.0671 26.3921 27.9968 26.3418 27.9256C26.4603 26.1872 27.5677 23.7199 29.8048 22.7036C28.3042 24.1595 27.1816 25.8167 26.4965 28.1363ZM27.0038 19.2272C28.2519 17.9278 30.0069 17.1191 31.9507 17.1191C33.8643 17.1191 35.5948 17.9028 36.8389 19.1667C34.8813 19.3938 33.2212 19.8846 31.8734 20.6481C30.6716 19.9586 29.0472 19.4926 27.0038 19.2272Z" fill="#FFDC17"/>
</g>
</g>
</g>
<defs>
<clipPath id="clip0_372_649">
<rect width="64" height="48" rx="8" fill="white"/>
</clipPath>
</defs>
</svg>
