<svg width="64" height="48" viewBox="0 0 64 48" fill="none" xmlns="http://www.w3.org/2000/svg">
<g clip-path="url(#clip0_372_515)">
<mask id="mask0_372_515" style="mask-type:luminance" maskUnits="userSpaceOnUse" x="0" y="0" width="64" height="48">
<rect width="64" height="48" fill="white"/>
</mask>
<g mask="url(#mask0_372_515)">
<path fill-rule="evenodd" clip-rule="evenodd" d="M0 0V48H64V0H0Z" fill="#4EC7EE"/>
<mask id="mask1_372_515" style="mask-type:luminance" maskUnits="userSpaceOnUse" x="0" y="0" width="64" height="48">
<path fill-rule="evenodd" clip-rule="evenodd" d="M0 0V48H64V0H0Z" fill="white"/>
</mask>
<g mask="url(#mask1_372_515)">
<path d="M8.18016 46.4735C8.05324 47.4135 8.65534 48.083 9.66539 48.514C11.0232 49.0932 12.3933 48.5508 13.6536 47.1544L12.0204 45.6804C11.4605 46.3007 11.056 46.5397 10.7437 46.5356C11.3552 46.0988 12.1386 45.5595 13.0929 44.9187L13.5509 44.2552C13.9187 42.6772 12.7749 41.8222 11.0304 41.8222C10.0029 41.8222 9.18139 42.0255 8.66019 42.4625C7.80392 43.1805 7.95051 44.3266 8.8516 44.9228C8.92308 44.9701 8.99563 45.0127 9.06915 45.0506C8.56366 45.4775 8.25514 45.9182 8.18016 46.4735Z" fill="#FFE402"/>
<path d="M9.12988 44.9902C9.12988 44.9902 9.37945 44.4371 9.25467 44.1493" stroke="#FFE402" stroke-width="2.2"/>
<path d="M17.1392 46.4735C17.2661 47.4135 16.664 48.083 15.6539 48.514C14.2961 49.0932 12.926 48.5508 11.6658 47.1544L13.299 45.6804C13.8588 46.3007 14.2633 46.5397 14.5756 46.5356C13.9642 46.0988 13.1808 45.5595 12.2265 44.9187L11.7685 44.2552C11.4006 42.6772 12.5445 41.8222 14.289 41.8222C15.3165 41.8222 16.1379 42.0255 16.6591 42.4625C17.5154 43.1805 17.3688 44.3266 16.4677 44.9228C16.3963 44.9701 16.3237 45.0127 16.2502 45.0506C16.7557 45.4775 17.0642 45.9182 17.1392 46.4735Z" fill="#FFE402"/>
<path d="M17.1919 44.5386L15.1866 45.4434C14.9051 44.8195 14.821 44.2527 15.0552 43.7125L17.0737 44.5876C17.1415 44.4311 17.1406 44.4249 17.1919 44.5386Z" fill="#FFE402"/>
<path d="M8.18016 1.52551C8.05324 0.585511 8.65534 -0.0840247 9.66539 -0.514938C11.0232 -1.09422 12.3933 -0.551777 13.6536 0.844646L12.0204 2.31862C11.4605 1.69831 11.056 1.45932 10.7437 1.46339C11.3552 1.90023 12.1386 2.43951 13.0929 3.08035L13.5509 3.7438C13.9187 5.32179 12.7749 6.17684 11.0304 6.17684C10.0029 6.17684 9.18139 5.97353 8.66019 5.53652C7.80392 4.81857 7.95051 3.67247 8.8516 3.0762C8.92308 3.0289 8.99563 2.98634 9.06915 2.94842C8.56366 2.52153 8.25514 2.08082 8.18016 1.52551Z" fill="#FFE402"/>
<path d="M17.1392 1.52551C17.2661 0.585511 16.664 -0.0840247 15.6539 -0.514938C14.2961 -1.09422 12.926 -0.551777 11.6658 0.844646L13.299 2.31862C13.8588 1.69831 14.2633 1.45932 14.5756 1.46339C13.9642 1.90023 13.1808 2.43951 12.2265 3.08035L11.7685 3.7438C11.4006 5.32179 12.5445 6.17684 14.289 6.17684C15.3165 6.17684 16.1379 5.97353 16.6591 5.53652C17.5154 4.81857 17.3688 3.67247 16.4677 3.0762C16.3963 3.0289 16.3237 2.98634 16.2502 2.94842C16.7557 2.52153 17.0642 2.08082 17.1392 1.52551Z" fill="#FFE402"/>
<path fill-rule="evenodd" clip-rule="evenodd" d="M10.1877 40.126C8.92564 40.1623 8.14041 40.4226 8.14041 41.6392C8.14041 42.9807 9.4437 43.4004 10.8303 43.4004C12.0863 43.4004 13.5013 42.6208 13.5013 41.2247C13.5013 40.3754 12.4214 38.6614 9.70215 34.9461C9.6079 34.8583 9.556 34.8135 9.51444 34.8133C9.67934 34.7214 9.96976 34.6139 10.353 34.6139C10.486 34.6139 10.6589 34.6812 10.8303 34.7674V36.2245H13.7092V35.1245C13.7092 33.8817 11.8721 32.4139 10.353 32.4139C9.02626 32.4139 7.96116 33.045 7.42167 33.953C6.88852 34.8502 7.29621 35.7116 8.06188 36.3967C9.20125 37.9681 10.0859 39.2688 10.6407 40.1235C10.4369 40.1218 10.3249 40.122 10.1877 40.126ZM10.3227 41.1407C10.2828 41.1318 10.2444 41.1221 10.2085 41.1117C10.2352 41.1397 10.3402 41.2649 10.3402 41.6395C10.3402 41.8435 10.3304 41.987 10.3172 42.0879C9.94604 41.7605 9.84228 41.1896 10.1139 40.7502L10.1206 40.7393L10.3227 41.1407ZM10.2086 41.1113C10.1955 41.1075 10.1828 41.1036 10.1704 41.0997C10.1745 41.101 10.1799 41.1035 10.1862 41.1076L10.2086 41.1113ZM11.3014 41.2246C11.3014 41.1871 11.2887 41.1647 11.2666 41.1528L11.2794 41.1668C11.294 41.1969 11.3014 41.2163 11.3014 41.2246ZM10.121 40.7393L10.0796 40.657C10.0851 40.6542 10.0906 40.6514 10.096 40.6486C10.16 40.6157 10.2125 40.5886 10.121 40.7393Z" fill="#FFE402"/>
<path fill-rule="evenodd" clip-rule="evenodd" d="M15.1312 40.126C16.3932 40.1623 17.1784 40.4226 17.1784 41.6392C17.1784 42.9807 15.8752 43.4004 14.4886 43.4004C13.2325 43.4004 11.8175 42.6208 11.8175 41.2247C11.8175 40.3754 12.8974 38.6614 15.6167 34.9461C15.7109 34.8583 15.7628 34.8135 15.8044 34.8133C15.6395 34.7214 15.3491 34.6139 14.9659 34.6139C14.8328 34.6139 14.66 34.6812 14.4886 34.7674V36.2245H11.6096V35.1245C11.6096 33.8817 13.4468 32.4139 14.9659 32.4139C16.2926 32.4139 17.3577 33.045 17.8972 33.953C18.4303 34.8502 18.0226 35.7116 17.257 36.3967C16.1176 37.9681 15.2329 39.2688 14.6781 40.1235C14.882 40.1218 14.9939 40.122 15.1312 40.126ZM14.9961 41.1407C15.0361 41.1318 15.0745 41.1221 15.1103 41.1117C15.0836 41.1397 14.9786 41.2649 14.9786 41.6395C14.9786 41.8435 14.9885 41.987 15.0016 42.0879C15.3728 41.7605 15.4766 41.1896 15.2049 40.7502L15.1982 40.7393L14.9961 41.1407ZM15.1103 41.1113C15.1234 41.1075 15.1361 41.1036 15.1484 41.0997C15.1443 41.101 15.1389 41.1035 15.1326 41.1076L15.1103 41.1113ZM14.0174 41.2246C14.0174 41.1871 14.0302 41.1647 14.0522 41.1528L14.0394 41.1668C14.0248 41.1969 14.0174 41.2163 14.0174 41.2246ZM15.1978 40.7393L15.2393 40.657C15.2338 40.6542 15.2283 40.6514 15.2228 40.6486C15.1589 40.6157 15.1063 40.5886 15.1978 40.7393Z" fill="#FFE402"/>
<path fill-rule="evenodd" clip-rule="evenodd" d="M10.1877 26.709C8.92564 26.6727 8.14041 26.4123 8.14041 25.1958C8.14041 23.8543 9.4437 23.4346 10.8303 23.4346C12.0863 23.4346 13.5013 24.2141 13.5013 25.6103C13.5013 26.4596 12.4214 28.1735 9.70215 31.8889C9.6079 31.9767 9.556 32.0214 9.51444 32.0217C9.67934 32.1135 9.96976 32.2211 10.353 32.2211C10.486 32.2211 10.6589 32.1538 10.8303 32.0676V30.6104H13.7092V31.7104C13.7092 32.9532 11.8721 34.4211 10.353 34.4211C9.02626 34.4211 7.96116 33.7899 7.42167 32.882C6.88852 31.9847 7.29621 31.1234 8.06188 30.4383C9.20125 28.8669 10.0859 27.5661 10.6407 26.7115C10.4369 26.7132 10.3249 26.7129 10.1877 26.709ZM10.3227 25.6943C10.2828 25.7032 10.2444 25.7129 10.2085 25.7233C10.2352 25.6953 10.3402 25.5701 10.3402 25.1954C10.3402 24.9915 10.3304 24.848 10.3172 24.7471C9.94604 25.0745 9.84228 25.6453 10.1139 26.0847L10.1206 26.0957L10.3227 25.6943ZM10.2086 25.7236C10.1955 25.7274 10.1828 25.7313 10.1704 25.7353C10.1745 25.734 10.1799 25.7314 10.1862 25.7274L10.2086 25.7236ZM11.3014 25.6104C11.3014 25.6479 11.2887 25.6702 11.2666 25.6822L11.2794 25.6682C11.294 25.6381 11.3014 25.6187 11.3014 25.6104ZM10.121 26.0957L10.0796 26.178C10.0851 26.1807 10.0906 26.1836 10.096 26.1864C10.16 26.2193 10.2125 26.2463 10.121 26.0957Z" fill="#FFE402"/>
<path fill-rule="evenodd" clip-rule="evenodd" d="M15.1312 26.709C16.3932 26.6727 17.1784 26.4123 17.1784 25.1958C17.1784 23.8543 15.8752 23.4346 14.4886 23.4346C13.2325 23.4346 11.8175 24.2141 11.8175 25.6103C11.8175 26.4596 12.8974 28.1735 15.6167 31.8889C15.7109 31.9767 15.7628 32.0214 15.8044 32.0217C15.6395 32.1135 15.3491 32.2211 14.9659 32.2211C14.8328 32.2211 14.66 32.1538 14.4886 32.0676V30.6104H11.6096V31.7104C11.6096 32.9532 13.4468 34.4211 14.9659 34.4211C16.2926 34.4211 17.3577 33.7899 17.8972 32.882C18.4303 31.9847 18.0226 31.1234 17.257 30.4383C16.1176 28.8669 15.2329 27.5661 14.6781 26.7115C14.882 26.7132 14.9939 26.7129 15.1312 26.709ZM14.9961 25.6943C15.0361 25.7032 15.0745 25.7129 15.1103 25.7233C15.0836 25.6953 14.9786 25.5701 14.9786 25.1954C14.9786 24.9915 14.9885 24.848 15.0016 24.7471C15.3728 25.0745 15.4766 25.6453 15.2049 26.0847L15.1982 26.0957L14.9961 25.6943ZM15.1103 25.7236C15.1234 25.7274 15.1361 25.7313 15.1484 25.7353C15.1443 25.734 15.1389 25.7314 15.1326 25.7274L15.1103 25.7236ZM14.0174 25.6104C14.0174 25.6479 14.0302 25.6702 14.0522 25.6822L14.0394 25.6682C14.0248 25.6381 14.0174 25.6187 14.0174 25.6104ZM15.1978 26.0957L15.2393 26.178C15.2338 26.1807 15.2283 26.1836 15.2228 26.1864C15.1589 26.2193 15.1063 26.2463 15.1978 26.0957Z" fill="#FFE402"/>
<path fill-rule="evenodd" clip-rule="evenodd" d="M10.1877 21.29C8.92564 21.3264 8.14041 21.5867 8.14041 22.8033C8.14041 24.1448 9.4437 24.5645 10.8303 24.5645C12.0863 24.5645 13.5013 23.7849 13.5013 22.3888C13.5013 21.5394 12.4214 19.8255 9.70215 16.1101C9.6079 16.0223 9.556 15.9776 9.51444 15.9773C9.67934 15.8855 9.96976 15.778 10.353 15.778C10.486 15.778 10.6589 15.8453 10.8303 15.9315V17.3886H13.7092V16.2886C13.7092 15.0458 11.8721 13.578 10.353 13.578C9.02626 13.578 7.96116 14.2091 7.42167 15.117C6.88852 16.0143 7.29621 16.8756 8.06188 17.5607C9.20125 19.1322 10.0859 20.4329 10.6407 21.2875C10.4369 21.2858 10.3249 21.2861 10.1877 21.29ZM10.3227 22.3047C10.2828 22.2959 10.2444 22.2862 10.2085 22.2757C10.2352 22.3038 10.3402 22.4289 10.3402 22.8036C10.3402 23.0076 10.3304 23.1511 10.3172 23.252C9.94604 22.9245 9.84228 22.3537 10.1139 21.9143L10.1206 21.9033L10.3227 22.3047ZM10.2086 22.2754C10.1955 22.2716 10.1828 22.2677 10.1704 22.2637C10.1745 22.2651 10.1799 22.2676 10.1862 22.2717L10.2086 22.2754ZM11.3014 22.3887C11.3014 22.3511 11.2887 22.3288 11.2666 22.3168L11.2794 22.3308C11.294 22.3609 11.3014 22.3804 11.3014 22.3887ZM10.121 21.9033L10.0796 21.821C10.0851 21.8183 10.0906 21.8154 10.096 21.8127C10.16 21.7797 10.2125 21.7527 10.121 21.9033Z" fill="#FFE402"/>
<path fill-rule="evenodd" clip-rule="evenodd" d="M15.1312 21.29C16.3932 21.3264 17.1784 21.5867 17.1784 22.8033C17.1784 24.1448 15.8752 24.5645 14.4886 24.5645C13.2325 24.5645 11.8175 23.7849 11.8175 22.3888C11.8175 21.5394 12.8974 19.8255 15.6167 16.1101C15.7109 16.0223 15.7628 15.9776 15.8044 15.9773C15.6395 15.8855 15.3491 15.778 14.9659 15.778C14.8328 15.778 14.66 15.8453 14.4886 15.9315V17.3886H11.6096V16.2886C11.6096 15.0458 13.4468 13.578 14.9659 13.578C16.2926 13.578 17.3577 14.2091 17.8972 15.117C18.4303 16.0143 18.0226 16.8756 17.257 17.5607C16.1176 19.1322 15.2329 20.4329 14.6781 21.2875C14.882 21.2858 14.9939 21.2861 15.1312 21.29ZM14.9961 22.3047C15.0361 22.2959 15.0745 22.2862 15.1103 22.2757C15.0836 22.3038 14.9786 22.4289 14.9786 22.8036C14.9786 23.0076 14.9885 23.1511 15.0016 23.252C15.3728 22.9245 15.4766 22.3537 15.2049 21.9143L15.1982 21.9033L14.9961 22.3047ZM15.1103 22.2754C15.1234 22.2716 15.1361 22.2677 15.1484 22.2637C15.1443 22.2651 15.1389 22.2676 15.1326 22.2717L15.1103 22.2754ZM14.0174 22.3887C14.0174 22.3511 14.0302 22.3288 14.0522 22.3168L14.0394 22.3308C14.0248 22.3609 14.0174 22.3804 14.0174 22.3887ZM15.1978 21.9033L15.2393 21.821C15.2338 21.8183 15.2283 21.8154 15.2228 21.8127C15.1589 21.7797 15.1063 21.7527 15.1978 21.9033Z" fill="#FFE402"/>
<path fill-rule="evenodd" clip-rule="evenodd" d="M10.1877 7.87401C8.92564 7.83769 8.14041 7.57735 8.14041 6.3608C8.14041 5.01931 9.4437 4.59961 10.8303 4.59961C12.0863 4.59961 13.5013 5.37917 13.5013 6.7753C13.5013 7.62464 12.4214 9.33856 9.70215 13.0539C9.6079 13.1417 9.556 13.1865 9.51444 13.1867C9.67934 13.2786 9.96976 13.3861 10.353 13.3861C10.486 13.3861 10.6589 13.3188 10.8303 13.2326V11.7755H13.7092V12.8755C13.7092 14.1183 11.8721 15.5861 10.353 15.5861C9.02626 15.5861 7.96116 14.955 7.42167 14.047C6.88852 13.1498 7.29621 12.2884 8.06188 11.6033C9.20125 10.0319 10.0859 8.73117 10.6407 7.87653C10.4369 7.87823 10.3249 7.87797 10.1877 7.87401ZM10.3227 6.85932C10.2828 6.8682 10.2444 6.87791 10.2085 6.88833C10.2352 6.86031 10.3402 6.73514 10.3402 6.36048C10.3402 6.15651 10.3304 6.013 10.3172 5.91211C9.94604 6.23955 9.84228 6.81036 10.1139 7.24975L10.1206 7.26072L10.3227 6.85932ZM10.2086 6.88867C10.1955 6.89247 10.1828 6.89635 10.1704 6.90033C10.1745 6.899 10.1799 6.89647 10.1862 6.8924L10.2086 6.88867ZM11.3014 6.77539C11.3014 6.81295 11.2887 6.83528 11.2666 6.84724L11.2794 6.83322C11.294 6.80314 11.3014 6.78371 11.3014 6.77539ZM10.121 7.26074L10.0796 7.34301C10.0851 7.34578 10.0906 7.34861 10.096 7.3514C10.16 7.38433 10.2125 7.41139 10.121 7.26074Z" fill="#FFE402"/>
<path fill-rule="evenodd" clip-rule="evenodd" d="M15.1312 7.87401C16.3932 7.83769 17.1784 7.57735 17.1784 6.3608C17.1784 5.01931 15.8752 4.59961 14.4886 4.59961C13.2325 4.59961 11.8175 5.37917 11.8175 6.7753C11.8175 7.62464 12.8974 9.33856 15.6167 13.0539C15.7109 13.1417 15.7628 13.1865 15.8044 13.1867C15.6395 13.2786 15.3491 13.3861 14.9659 13.3861C14.8328 13.3861 14.66 13.3188 14.4886 13.2326V11.7755H11.6096V12.8755C11.6096 14.1183 13.4468 15.5861 14.9659 15.5861C16.2926 15.5861 17.3577 14.955 17.8972 14.047C18.4303 13.1498 18.0226 12.2884 17.257 11.6033C16.1176 10.0319 15.2329 8.73117 14.6781 7.87653C14.882 7.87823 14.9939 7.87797 15.1312 7.87401ZM14.9961 6.85932C15.0361 6.8682 15.0745 6.87791 15.1103 6.88833C15.0836 6.86031 14.9786 6.73514 14.9786 6.36048C14.9786 6.15651 14.9885 6.013 15.0016 5.91211C15.3728 6.23955 15.4766 6.81036 15.2049 7.24975L15.1982 7.26072L14.9961 6.85932ZM15.1103 6.88867C15.1234 6.89247 15.1361 6.89635 15.1484 6.90033C15.1443 6.899 15.1389 6.89647 15.1326 6.8924L15.1103 6.88867ZM14.0174 6.77539C14.0174 6.81295 14.0302 6.83528 14.0522 6.84724L14.0394 6.83322C14.0248 6.80314 14.0174 6.78371 14.0174 6.77539ZM15.1978 7.26074L15.2393 7.34301C15.2338 7.34578 15.2283 7.34861 15.2228 7.3514C15.1589 7.38433 15.1063 7.41139 15.1978 7.26074Z" fill="#FFE402"/>
<path fill-rule="evenodd" clip-rule="evenodd" d="M37.9736 5.56934L38.7925 8.62476C38.7925 8.62476 38.8021 9.31893 38.0179 9.31893C37.2337 9.31893 37.1942 8.62476 37.1942 8.62476L37.9736 5.56934ZM44.9006 17.24C44.9006 21.2165 41.8651 24.44 38.1206 24.44C34.3762 24.44 31.3406 21.2165 31.3406 17.24C31.3406 13.2636 34.3762 10.04 38.1206 10.04C41.8651 10.04 44.9006 13.2636 44.9006 17.24ZM41.1624 9.24079L41.2726 6.07945L39.6339 8.77348C39.6339 8.77348 39.4687 9.44888 40.2187 9.67816C40.9686 9.90745 41.1624 9.24079 41.1624 9.24079ZM44.2813 7.57649L43.2516 10.5675C43.2516 10.5675 42.8714 11.1484 42.2213 10.7098C41.5711 10.2713 41.9265 9.67368 41.9265 9.67368L44.2813 7.57649ZM44.8734 12.4873L46.7325 9.92802L43.8675 11.2451C43.8675 11.2451 43.3529 11.7127 43.8464 12.3221C44.34 12.9316 44.8734 12.4873 44.8734 12.4873ZM48.4222 12.9552L45.8632 14.8147C45.8632 14.8147 45.2186 15.0725 44.9376 14.3403C44.6565 13.6082 45.2904 13.3225 45.2904 13.3225L48.4222 12.9552ZM46.1756 17.3642L49.1665 16.3342L46.0642 15.7698C46.0642 15.7698 45.3744 15.8577 45.4291 16.64C45.4838 17.4223 46.1756 17.3642 46.1756 17.3642ZM48.9212 19.7917L45.7598 19.9023C45.7598 19.9023 45.0813 19.7555 45.2577 18.9914C45.4341 18.2273 46.1194 18.3449 46.1194 18.3449L48.9212 19.7917ZM44.6517 22.2022L47.7073 23.0207L45.4509 20.818C45.4509 20.818 44.83 20.5052 44.4379 21.1843C44.0458 21.8635 44.6517 22.2022 44.6517 22.2022ZM45.6329 25.7347L42.9502 24.0586C42.9502 24.0586 42.4697 23.5575 43.0433 23.0227C43.6168 22.4878 44.1192 22.9685 44.1192 22.9685L45.6329 25.7347ZM40.8059 25.307L42.8813 27.6942L42.2424 24.6063C42.2424 24.6063 41.9026 23.9998 41.1977 24.3435C40.4929 24.6873 40.8059 25.307 40.8059 25.307ZM39.6968 28.7254L38.41 25.8357C38.41 25.8357 38.2919 25.1516 39.0664 25.0289C39.841 24.9063 39.9887 25.5857 39.9887 25.5857L39.6968 28.7254ZM35.9982 25.5857L36.3291 28.7316L37.5769 25.8357C37.5769 25.8357 37.6465 25.1439 36.8719 25.0212C36.0973 24.8985 35.9982 25.5857 35.9982 25.5857ZM33.1415 27.712L33.7449 24.6068C33.7449 24.6068 34.0406 23.9787 34.7454 24.3225C35.4503 24.6663 35.1815 25.3075 35.1815 25.3075L33.1415 27.712ZM31.8678 22.9693L30.3829 25.7624L33.0367 24.0594C33.0367 24.0594 33.4812 23.5247 32.9077 22.9899C32.3342 22.455 31.8678 22.9693 31.8678 22.9693ZM28.2991 23.0545L30.5357 20.8176C30.5357 20.8176 31.132 20.4621 31.5242 21.1413C31.9163 21.8204 31.3349 22.2018 31.3349 22.2018L28.2991 23.0545ZM29.8674 18.3451L27.0745 19.8304L30.2269 19.9025C30.2269 19.9025 30.8944 19.7078 30.718 18.9437C30.5416 18.1796 29.8674 18.3451 29.8674 18.3451ZM26.8174 16.3738L29.9225 15.77C29.9225 15.77 30.6156 15.8089 30.5609 16.5912C30.5062 17.3735 29.811 17.3645 29.811 17.3645L26.8174 16.3738ZM30.6961 13.3225L27.5502 12.992L30.1233 14.8147C30.1233 14.8147 30.7855 15.0265 31.0666 14.2944C31.3476 13.5623 30.6961 13.3225 30.6961 13.3225ZM29.2291 9.9587L32.119 11.2451C32.119 11.2451 32.6645 11.6745 32.171 12.284C31.6775 12.8934 31.1131 12.4873 31.1131 12.4873L29.2291 9.9587ZM34.0599 9.67443L31.6724 7.59929L32.7348 10.5682C32.7348 10.5682 33.1557 11.1216 33.8059 10.6831C34.456 10.2445 34.0599 9.67443 34.0599 9.67443ZM34.6759 6.09145L36.3523 8.77394C36.3523 8.77394 36.5645 9.43496 35.8145 9.66424C35.0646 9.89353 34.8238 9.24125 34.8238 9.24125L34.6759 6.09145Z" fill="#FFE402"/>
<path fill-rule="evenodd" clip-rule="evenodd" d="M24.442 21.3431C24.4146 21.2381 24.3896 21.1356 24.367 21.0356L24.5068 21.3172L24.442 21.3431ZM24.6338 22.0029C24.5605 21.7727 24.4966 21.5528 24.442 21.3431L23.585 21.6852L23.7118 22.0029H23.6194L23.5835 22.0208C23.5322 21.7596 23.5063 21.512 23.5063 21.2772V19.303L24.367 21.0356C24.2579 20.5543 24.2031 20.1309 24.2031 19.7618V17.3008L25.1988 19.7944L24.2534 20.0903L24.6249 21.2773H24.6065L24.5068 21.3172L24.8598 22.0278L25.1995 23.113C24.8814 22.529 24.7194 22.1414 24.7194 22.0029H24.6338ZM25.7281 24.7765C25.2527 23.7211 24.8875 22.8 24.6338 22.0029H23.7118L24.6493 24.351L24.3023 23.9808C23.9387 23.2526 23.6978 22.6028 23.5835 22.0208L22.8204 22.3998L22.6689 22.2383V22.4751L22.6343 22.4923L22.6689 22.5621V22.8307C22.5691 22.5189 22.5195 22.2454 22.5195 22.0035V17.3164L23.5063 19.303V15.5557L24.2031 17.3008V12.5645L26.9847 21.4519L26.7892 21.5155C26.5312 20.7446 26.4032 20.1547 26.4032 19.7617H25.3032L25.1988 19.7944L25.9899 21.7759L25.7991 21.8381C25.7372 21.6184 25.7065 21.4308 25.7065 21.2773H24.6249L24.8598 22.0278L26.0878 24.4999L26.037 24.5192C25.6902 23.9743 25.4105 23.5005 25.1995 23.113L25.6818 24.6542L26.037 24.5192L26.0865 24.5967L25.7281 24.7765ZM26.1096 24.6327L25.7286 24.7776L25.7281 24.7765L25.2656 25.0084L24.6493 24.351L24.9426 25.0855C24.906 25.0552 24.8844 25.0346 24.875 25.0253C24.6589 24.6602 24.4679 24.3124 24.3023 23.9808L22.8204 22.3998L22.6689 22.4751V22.5621L23.8896 25.0195H23.7693L23.7608 25.0275C23.2179 24.1308 22.8556 23.4136 22.6689 22.8307V24.4378L18.2998 21.3252L23.8643 27.9476C25.6427 30.0641 27.8341 31.6904 30.4264 32.8204L25.3872 32.7134L30.5078 34.1586L27.8589 36.108L32.4342 34.7023L33.683 35.0547C35.3623 35.5287 36.2973 36.0042 36.3585 36.1486L36.5942 36.7057L37.191 36.805C38.4986 37.0225 40.9111 36.6835 44.019 35.9947C45.0751 35.7606 46.1349 35.4999 46.955 35.2786C47.2987 35.1858 47.5676 35.1086 47.7192 35.0588C47.7465 35.0497 47.7619 35.0446 47.7772 35.0392C47.797 35.0322 47.8165 35.0247 47.8613 35.0074C47.8763 35.0013 47.887 34.9971 47.8975 34.9924C47.9228 34.9812 47.9472 34.968 48.0304 34.9228C48.1307 34.909 48.2045 34.8989 48.2538 34.8588C48.3907 34.7477 48.3405 34.4064 48.1515 33.119C47.2848 32.887 47.164 32.8547 47.1316 32.8945C47.1263 32.9009 47.1234 32.9092 47.12 32.9189C46.8226 32.9805 46.359 32.9736 45.741 32.8941C50.9127 30.3509 54.3099 27.8029 55.9375 25.1812L58.9144 20.3857L57.1112 21.7013L57.761 19.6123L55.1905 21.2642C55.5214 20.8253 55.7772 20.3885 55.9579 19.9519L57.894 15.2725L54.8391 18.1224L56.4964 12.6602L52.5649 17.9269L36.4642 29.7753L36.2137 29.7172C32.2507 28.7984 29.4675 25.9988 27.8113 21.1826L26.9847 21.4519L26.9954 21.4861L26.8006 21.5495L26.7892 21.5155L25.9899 21.7759L26.0032 21.8092L25.809 21.8725L25.7991 21.8381L25.7197 21.8639C25.9873 22.7332 26.2792 23.5477 26.5956 24.3068L26.0878 24.4999L26.126 24.5769L26.0865 24.5967L26.1096 24.6327ZM26.1468 24.6186L26.1096 24.6327L26.1881 24.7544L25.3987 25.1504L25.2656 25.0084L25.0083 25.1375C24.9825 25.1179 24.9607 25.1005 24.9426 25.0855L24.9709 25.1563L25.0083 25.1375C25.0533 25.1717 25.1105 25.2126 25.1816 25.2592L25.0544 25.3231C24.9928 25.2225 24.933 25.1233 24.875 25.0253L24.8693 25.0195H23.8896L24.111 25.4651L23.9667 25.3624C23.8954 25.248 23.8268 25.1364 23.7608 25.0275L23.6468 25.1344L22.6689 24.4378V25.0202C22.6689 26.0614 23.4015 26.8484 24.6598 27.4951L24.0684 28.1358L30.6508 32.8251L30.4264 32.8204C30.6418 32.9142 30.8599 33.0047 31.0808 33.0917L31.6519 33.3167L30.5078 34.1586L32.4342 34.7023L33.9707 34.2302L39.4379 36.3841L37.6749 35.1281C37.8898 35.1263 38.0987 35.1236 38.3015 35.1201C38.2156 34.9623 38.1062 34.8129 37.9729 34.6705C37.8109 34.6662 37.6699 34.6544 37.5515 34.6348L37.4912 34.9973L35.6493 33.6851C36.3538 33.442 37.0381 33.1873 37.702 32.9208C40.4311 32.8915 42.0669 32.7452 42.3097 32.5652L42.7307 32.2529L43.2384 32.3833C43.7274 32.5088 44.1777 32.6132 44.5875 32.6971L44.9362 33.283C45.2091 33.1533 45.4774 33.0237 45.741 32.8941C45.6759 32.8857 45.609 32.8765 45.5405 32.8665L55.6512 25.4903L54.8046 24.7047C55.8754 24.1534 56.5733 23.4301 56.8631 22.4986L57.1112 21.7013L56.0208 22.4967L55.8124 22.1725L54.7621 21.8457C54.665 22.1579 54.3485 22.4702 53.7875 22.7569C54.3501 22.2552 54.8179 21.7584 55.1905 21.2642L53.6039 22.2838L55.6915 20.3362L54.388 19.4325C54.5016 19.1757 54.5964 18.9223 54.6723 18.6721L54.8391 18.1224L54.1028 18.8093L53.0077 18.2559L53.514 17.2285L52.5649 17.9269L50.3132 20.9433L49.5471 20.3018C47.4918 24.4724 43.7926 27.7838 38.4124 30.227L36.4642 29.7753L35.9082 30.1845L35.9649 29.6888C32.2965 29.6888 29.5923 26.9687 27.822 21.2168L26.9954 21.4861L27.7813 23.9972L26.996 24.2958L26.9471 24.1732L27.7345 23.8738C27.331 22.9781 27.0201 22.2002 26.8006 21.5495L26.0032 21.8092L26.9471 24.1732L26.8802 24.1986L26.9303 24.1735C26.3452 23.219 25.9751 22.4414 25.809 21.8725L25.7305 21.8981C26.0192 22.7378 26.342 23.5278 26.6987 24.2676L26.5956 24.3068L26.6075 24.3354L26.126 24.5769L26.1468 24.6186ZM26.6467 24.4286L26.1468 24.6186L26.209 24.744L26.1881 24.7544L26.2636 24.8705L25.5299 25.2904L25.3987 25.1504L25.1816 25.2592C25.2373 25.2958 25.3016 25.3358 25.3752 25.3788L24.607 25.8185L24.111 25.4651L24.3574 25.9613L24.607 25.8185L24.7233 25.9014L24.4217 26.074C24.2595 25.8257 24.1079 25.5887 23.9667 25.3624L23.6468 25.1344L22.9668 25.7718L24.3781 27.2774L25.1806 26.5251L25.2922 26.3066L28.8751 28.8591L30.2013 30.2739C28.3972 29.3253 26.8487 28.0792 25.5488 26.5322L24.6598 27.4951L24.6801 27.5055L30.2913 30.3699L30.2013 30.2739C30.7404 30.5574 31.3023 30.8143 31.8872 31.0447L30.9181 32.8308L30.6508 32.8251L30.8458 32.9641L30.9181 32.8308L32.2731 32.8596L31.6519 33.3167L33.9707 34.2302L34.0524 34.2051C34.5958 34.0382 35.1281 33.8648 35.6493 33.6851L35.2503 33.4008L35.899 32.9234C36.5438 32.9279 37.1456 32.9267 37.702 32.9208C38.5151 32.5944 39.2976 32.2504 40.0494 31.8888H44.1064L44.5875 32.6971C44.6796 32.716 44.7697 32.7338 44.8577 32.7506L45.1125 33.1787L45.5405 32.8665C45.3289 32.8356 45.1012 32.797 44.8577 32.7506L44.3448 31.8888H45.5799L44.147 31.5566L43.9922 31.2965C48.2481 29.2746 51.2574 27.2889 53.017 25.3814C53.6955 25.1925 54.2927 24.9683 54.8046 24.7047L54.4372 24.3638L56.4071 23.0979L56.0208 22.4967L52.7005 24.9191L52.2854 23.95C52.8446 23.5484 53.3453 23.1512 53.7875 22.7569C53.4735 22.9174 53.0829 23.0698 52.6114 23.2097L53.6039 22.2838L50.5932 24.2185C52.4689 22.4875 53.7373 20.9035 54.388 19.4325L54.255 19.3403L54.5012 19.0106L54.1028 18.8093L51.5709 21.1713L53.0077 18.2559L52.5671 18.0332C52.2979 18.9202 51.6295 19.9647 50.5556 21.1463L50.3132 20.9433L48.957 22.7602L49.2954 23.0651L39.2874 30.4299L38.4124 30.227C37.5757 30.607 36.6983 30.966 35.7801 31.3039L35.9082 30.1845L34.2243 31.4237C30.996 30.2693 28.5108 27.9284 26.7892 24.453L27.0138 24.3403L26.996 24.2958L26.7566 24.3868C26.7401 24.3531 26.7236 24.3193 26.7072 24.2854L26.8802 24.1986L26.6987 24.2676L26.7072 24.2854L26.6075 24.3354L26.6467 24.4286ZM26.6803 24.5076L26.209 24.744L26.3278 24.9832L25.6211 25.3876L25.5299 25.2904L25.3752 25.3788C25.4161 25.4027 25.4598 25.4275 25.5065 25.4532L24.7233 25.9014L25.2922 26.3066L25.6807 25.5454C25.6185 25.5136 25.5605 25.4828 25.5065 25.4532L25.6211 25.3876L28.8751 28.8591L33.3638 32.0569L32.2731 32.8596L33.8034 32.892L34.3813 34.0403L35.2503 33.4008L34.5571 32.907C35.0228 32.9151 35.4704 32.9205 35.899 32.9234L37.3049 31.8888H40.0494C40.6399 31.6048 41.2116 31.3099 41.7643 31.0041L43.8705 31.4925L44.1064 31.8888H44.3448L44.147 31.5566L43.8705 31.4925L43.8159 31.4007L51.5766 25.739L52.5539 25.5018C52.7123 25.4634 52.8666 25.4232 53.017 25.3814C53.0932 25.2988 53.167 25.2164 53.2385 25.1341L54.4372 24.3638L54.0683 24.0215C53.8401 24.389 53.5635 24.76 53.2385 25.1341L52.8888 25.3588L52.7005 24.9191L51.5766 25.739L47.5918 26.7062C48.0378 26.2626 48.4597 25.8052 48.8574 25.334L50.1333 24.5141L50.5683 25.0854C51.1915 24.7026 51.7639 24.3244 52.2854 23.95L52.152 23.6383L52.6114 23.2097C52.4311 23.2632 52.2389 23.3149 52.0347 23.3645L52.152 23.6383L50.7427 24.9531L50.318 24.3954L50.5826 24.2253L50.5842 24.2268L50.5932 24.2185L50.5826 24.2253L50.0629 23.7569C50.1016 23.7006 50.1401 23.6442 50.1782 23.5877L50.72 24.076L54.255 19.3403L53.9247 19.1113C53.5671 19.9757 52.6231 20.986 51.0885 22.1004C51.2389 21.8284 51.3829 21.5528 51.5205 21.2735L51.5709 21.1713L51.1048 21.6062L50.5556 21.1463C50.1314 21.613 49.6439 22.1011 49.0928 22.6093L49.4622 22.9423L49.2954 23.0651L49.4203 23.1777L49.2422 23.3438L49.8195 24.102C49.5163 24.5227 49.1956 24.9334 48.8574 25.334L46.1943 27.0454L47.5918 26.7062C45.9679 28.3213 44.0245 29.7537 41.7643 31.0041L39.2874 30.4299L37.3049 31.8888H35.9653C35.4455 31.8888 34.9419 31.8483 34.4544 31.7678C34.5894 31.7229 34.7236 31.6776 34.857 31.6319C35.1382 31.7166 35.4246 31.7928 35.7164 31.8604L35.7801 31.3039C35.4768 31.4155 35.1691 31.5248 34.857 31.6319C34.643 31.5674 34.4321 31.498 34.2243 31.4237L33.9052 31.6585C30.8071 30.9351 28.3953 28.5148 26.6803 24.5076ZM26.6803 24.5076L26.7892 24.453L26.7566 24.3868L26.6467 24.4286L26.6803 24.5076ZM33.4217 32.0981L33.3638 32.0569L33.9052 31.6585C34.0859 31.7007 34.269 31.7371 34.4544 31.7678C34.1153 31.8805 33.771 31.9906 33.4217 32.0981ZM49.9525 23.9154C49.9895 23.8627 50.0263 23.8099 50.0629 23.7569L49.441 23.1964C49.5015 23.1592 49.5613 23.1221 49.6206 23.0851L50.1782 23.5877C50.5039 23.1046 50.8074 22.6088 51.0885 22.1004C50.6479 22.4203 50.1586 22.7489 49.6206 23.0851L49.5692 23.0388L50.4584 22.2092L51.1858 21.674L51.1048 21.6062L50.4584 22.2092L49.4622 22.9423L49.5692 23.0388L49.4203 23.1777L49.441 23.1964L49.4165 23.2115L49.9525 23.9154ZM49.9525 23.9154L50.318 24.3954L50.1333 24.5141L49.8195 24.102C49.8642 24.04 49.9085 23.9778 49.9525 23.9154ZM33.4217 32.0981L34.5571 32.907C34.3758 32.9038 34.1918 32.9003 34.0051 32.8963L33.8034 32.892L33.4062 32.1029L33.4217 32.0981ZM37.4912 34.9973L37.4692 35.1296L37.6749 35.1281L37.4912 34.9973ZM43.6202 34.3324L43.2998 33.9004C43.1389 33.9354 42.9798 33.9694 42.8228 34.0024L42.6914 34.5143C42.8199 34.5473 42.9462 34.5791 43.0704 34.6096C43.2983 34.528 43.4807 34.4358 43.6202 34.3324Z" fill="#FFE402"/>
</g>
</g>
</g>
<defs>
<clipPath id="clip0_372_515">
<rect width="64" height="48" rx="8" fill="white"/>
</clipPath>
</defs>
</svg>
