<svg width="32" height="32" viewBox="0 0 32 32" fill="none" xmlns="http://www.w3.org/2000/svg">
<path d="M12.8 11.6914C12.8 12.2848 12.3224 12.7659 11.7333 12.7659C11.1443 12.7659 10.6667 12.2848 10.6667 11.6914C10.6667 11.098 11.1443 10.6168 11.7333 10.6168C12.3224 10.6168 12.8 11.098 12.8 11.6914Z" fill="#0065FF"/>
<path d="M21.3333 20.2876C21.3333 20.881 20.8557 21.3621 20.2667 21.3621C19.6776 21.3621 19.2 20.881 19.2 20.2876C19.2 19.6942 19.6776 19.2131 20.2667 19.2131C20.8557 19.2131 21.3333 19.6942 21.3333 20.2876Z" fill="#0065FF"/>
<path d="M30.1867 19.1056C31.1467 18.3535 31.7867 17.1715 32 15.9895C31.8933 14.7 31.1467 13.6255 30.1867 12.8733C29.76 12.551 29.44 12.0137 29.12 11.5839C29.0133 10.9392 29.12 10.2945 29.2267 9.7572C29.5467 8.57522 29.44 7.28578 28.9067 6.21125C28.0533 5.35162 26.88 4.81436 25.7067 4.81436C25.1733 4.81436 24.64 4.59945 24.1067 4.38454C23.68 3.95473 23.4667 3.41747 23.2533 2.8802C22.72 1.80567 22.1867 0.516232 21.0133 0.0864199C19.84 -0.128486 18.56 0.193873 17.7067 0.946045C17.1733 1.2684 16.64 1.48331 16.1067 1.59076C15.5733 1.48331 15.04 1.2684 14.5067 0.946045C13.5467 0.408779 12.3733 -0.235939 11.2 0.0864199C10.0267 0.408779 9.28 1.69822 8.74667 2.77275C8.53333 3.31001 8.21333 3.84728 7.89333 4.27709C7.36 4.492 6.82667 4.7069 6.29333 4.7069C5.12 4.7069 3.94667 5.24417 3.09333 6.1038C2.56 7.17833 2.45333 8.46776 2.77333 9.64975C2.88 10.2945 2.98667 10.8317 2.88 11.4765C2.56 12.0137 2.24 12.4435 1.81333 12.7659C0.853333 13.6255 0.106667 14.7 0 15.9895C0.106667 17.2789 0.853333 18.3535 1.81333 19.1056C2.24 19.428 2.56 19.9652 2.88 20.3951C2.98667 21.0398 2.88 21.6845 2.77333 22.2218C2.45333 23.4037 2.56 24.6932 3.09333 25.7677C3.94667 26.6273 5.12 27.1646 6.29333 27.1646C6.82667 27.1646 7.36 27.3795 7.89333 27.5944C8.32 28.0242 8.53333 28.5615 8.74667 29.0988C9.28 30.1733 9.81333 31.4627 10.9867 31.8925C11.2 32 11.52 32 11.7333 32C12.6933 31.8925 13.5467 31.5702 14.2933 31.0329C14.8267 30.7106 15.36 30.4957 15.8933 30.3882C16.4267 30.4957 16.96 30.7106 17.4933 31.0329C18.4533 31.7851 19.6267 32.1075 20.8 31.8925C21.9733 31.4627 22.6133 30.2807 23.04 29.0988C23.2533 28.5615 23.5733 28.0242 23.8933 27.5944C24.4267 27.3795 24.96 27.1646 25.4933 27.1646C26.6667 27.1646 27.84 26.6273 28.6933 25.7677C29.2267 24.6932 29.3333 23.4037 29.0133 22.2218C28.9067 21.577 28.8 21.0398 28.9067 20.3951C29.44 19.9652 29.76 19.5354 30.1867 19.1056ZM17.0667 20.2876C17.0667 18.4609 18.4533 17.064 20.2667 17.064C22.08 17.064 23.4667 18.4609 23.4667 20.2876C23.4667 22.1143 22.08 23.5112 20.2667 23.5112C18.4533 23.5112 17.0667 22.1143 17.0667 20.2876ZM23.1467 10.2945L10.3467 23.1888C10.1333 23.4037 9.92 23.5112 9.6 23.5112C9.28 23.5112 9.06667 23.4037 8.85333 23.1888C8.42667 22.759 8.42667 22.1143 8.85333 21.6845L21.6533 8.79012C22.08 8.36031 22.8267 8.46776 23.1467 8.89758C23.4667 9.32739 23.4667 9.86466 23.1467 10.2945ZM14.9333 11.6914C14.9333 13.5181 13.5467 14.915 11.7333 14.915C9.92 14.915 8.53333 13.5181 8.53333 11.6914C8.53333 9.86466 9.92 8.46776 11.7333 8.46776C13.5467 8.46776 14.9333 9.86466 14.9333 11.6914Z" fill="#0065FF"/>
</svg>
