<svg width="28" height="32" viewBox="0 0 28 32" fill="none" xmlns="http://www.w3.org/2000/svg">
<path d="M14.0001 15.4073C10.3867 15.4113 6.92223 16.8486 4.36698 19.4039C1.81174 21.9589 0.374418 25.4235 0.370422 29.037V30.2222C0.370951 30.6936 0.558514 31.1455 0.891583 31.4788C1.22492 31.8119 1.67678 31.9995 2.14821 32H25.8518C26.3232 31.9995 26.7751 31.8119 27.1084 31.4788C27.4415 31.1455 27.6291 30.6936 27.6296 30.2222V29.037C27.6256 25.4236 26.1883 21.9591 23.633 19.4039C21.078 16.8486 17.6135 15.4113 13.9999 15.4073H14.0001Z" fill="#0065FF"/>
<path d="M21.1112 7.11108C21.1112 11.0383 17.9273 14.2222 14.0001 14.2222C10.0729 14.2222 6.88905 11.0383 6.88905 7.11108C6.88905 3.18387 10.0729 0 14.0001 0C17.9273 0 21.1112 3.18387 21.1112 7.11108Z" fill="#0065FF"/>
</svg>
