<svg width="30" height="32" viewBox="0 0 30 32" fill="none" xmlns="http://www.w3.org/2000/svg">
<path d="M21.1553 8.61276H8.84532C8.84532 8.61276 0.227386 15.9974 0.227386 24.6153C0.227386 29.5374 3.93337 32 6.38237 32H23.6176C26.0769 32 29.7726 29.5372 29.7726 24.6153C29.7726 15.9974 21.1547 8.61276 21.1547 8.61276H21.1553ZM16.2299 25.7205V27.6915H13.7706L13.7704 25.7271C11.9578 25.3901 10.8192 24.2718 10.7384 22.6479H12.8711C12.9754 23.5002 13.8346 24.0494 15.0777 24.0494C16.2231 24.0494 17.035 23.4936 17.035 22.702C17.035 22.0282 16.5096 21.644 15.2159 21.3545L13.8447 21.0614C11.9243 20.6605 10.981 19.6599 10.981 18.053C10.981 16.446 12.0523 15.287 13.757 14.9063V12.9217H16.2163V14.9094C17.8806 15.28 18.9891 16.4152 19.0429 17.9413L16.9845 17.9415C16.8802 17.1094 16.1051 16.5536 15.0406 16.5536C13.9761 16.5536 13.2078 17.0657 13.2078 17.8675C13.2078 18.5178 13.7098 18.8783 14.9462 19.1544L16.2163 19.424C18.3353 19.8686 19.2483 20.7714 19.2483 22.419C19.2485 24.1808 18.1165 25.3601 16.2299 25.7206L16.2299 25.7205Z" fill="#0065FF"/>
<path d="M21.1553 1.22456H17.7527C17.0498 0.445065 16.0496 0 15.0001 0C13.9506 0 12.9505 0.445089 12.2476 1.22456H8.84496C8.43794 1.2262 8.05819 1.42877 7.82976 1.76553C7.60133 2.10229 7.55387 2.53023 7.70286 2.90905L8.84494 6.14663H21.1549L22.297 2.90905C22.446 2.53023 22.3985 2.10231 22.1701 1.76553C21.9417 1.42875 21.5619 1.22621 21.1549 1.22456H21.1553Z" fill="#0065FF"/>
</svg>
