<svg width="34" height="32" viewBox="0 0 34 32" fill="none" xmlns="http://www.w3.org/2000/svg">
<path d="M3.90907 13.8182C5.91784 13.8182 7.54543 12.1906 7.54543 10.1818L10.4545 0H6.09089L0.272705 10.1818C0.272705 12.1906 1.9003 13.8182 3.90907 13.8182Z" fill="#0065FF"/>
<path d="M12.6363 13.8182C14.6451 13.8182 16.2727 12.1906 16.2727 10.1818V0H11.9091L8.99998 10.1818C8.99998 12.1906 10.6276 13.8182 12.6363 13.8182Z" fill="#0065FF"/>
<path d="M30.0909 13.8182C32.0996 13.8182 33.7272 12.1906 33.7272 10.1818L27.9091 0H23.5454L26.4545 10.1818C26.4545 12.1906 28.0821 13.8182 30.0909 13.8182Z" fill="#0065FF"/>
<path d="M21.3636 13.8182C23.3724 13.8182 25 12.1906 25 10.1818L22.0909 0H17.7272V10.1818C17.7272 12.1906 19.3548 13.8182 21.3636 13.8182Z" fill="#0065FF"/>
<path d="M31.5454 15.0358C31.0828 15.1755 30.6 15.2729 30.0909 15.2729C28.2305 15.2729 26.6158 14.256 25.7286 12.7596C24.8415 14.256 23.224 15.2729 21.3636 15.2729C19.5032 15.2729 17.8857 14.2576 17 12.7625C16.1126 14.2576 14.498 15.2729 12.6363 15.2729C10.7747 15.2729 9.1584 14.256 8.27137 12.7596C7.38402 14.256 5.77072 15.2729 3.90907 15.2729C3.39998 15.2729 2.91848 15.1755 2.45452 15.0358V30.5455H0.999978V32H33V30.5455H31.5454V15.0358ZM14.0909 25.4545C14.0909 25.8545 13.7649 26.1818 13.3636 26.1818H7.54543C7.14413 26.1818 6.81816 25.8545 6.81816 25.4545V19.6364C6.81816 19.2364 7.14413 18.9091 7.54543 18.9091H13.3636C13.7649 18.9091 14.0909 19.2364 14.0909 19.6364V25.4545ZM25.7272 30.5455H18.4545V19.6364C18.4545 19.2364 18.7818 18.9091 19.1818 18.9091H25C25.4 18.9091 25.7272 19.2364 25.7272 19.6364V30.5455Z" fill="#0065FF"/>
</svg>
