<svg width="34" height="32" viewBox="0 0 34 32" fill="none" xmlns="http://www.w3.org/2000/svg">
<path d="M18.7953 1.12487C18.4641 0.437451 17.7642 0 16.9955 0C16.2269 0 15.5332 0.437451 15.1957 1.12487L11.1774 9.3927L2.20343 10.7176C1.45351 10.83 0.828583 11.355 0.597358 12.0736C0.366134 12.7923 0.553613 13.586 1.09105 14.1172L7.60282 20.5602L6.0655 29.6654C5.94051 30.4153 6.25297 31.1778 6.87166 31.6215C7.49034 32.0652 8.30899 32.1214 8.98392 31.7652L17.0018 27.4844L25.0196 31.7652C25.6945 32.1214 26.5132 32.0714 27.1319 31.6215C27.7506 31.1715 28.063 30.4153 27.938 29.6654L26.3945 20.5602L32.9062 14.1172C33.4437 13.586 33.6374 12.7923 33.3999 12.0736C33.1625 11.355 32.5438 10.83 31.7939 10.7176L22.8136 9.3927L18.7953 1.12487Z" fill="#0065FF"/>
</svg>
