<svg width="76" height="76" viewBox="0 0 76 76" fill="none" xmlns="http://www.w3.org/2000/svg">
<circle cx="38" cy="38" r="38" fill="#0065FF"/>
<path d="M28.2999 24.2741C27.7804 23.8694 27.0421 23.9186 26.5718 24.3835L24.3844 26.5709C23.9195 27.0357 23.8703 27.774 24.2695 28.299L28.6444 33.9864C28.8905 34.309 29.2788 34.5004 29.6834 34.5004H32.642L38.6028 40.4612C37.7989 42.0471 38.0559 44.0377 39.3848 45.3611L45.5096 51.4859C46.1932 52.1695 47.3033 52.1695 47.9869 51.4859L51.4868 47.986C52.1704 47.3025 52.1704 46.1923 51.4868 45.5087L45.362 39.3839C44.0386 38.0605 42.048 37.798 40.4621 38.6019L34.5013 32.6411V29.688C34.5013 29.2779 34.3099 28.8951 33.9873 28.649L28.2999 24.2741ZM25.0898 45.6619C24.3953 46.3564 24.0015 47.3025 24.0015 48.2868C24.0015 50.3375 25.664 52 27.7147 52C28.6991 52 29.6452 51.6063 30.3397 50.9117L36.7817 44.4697C36.3552 43.3268 36.2895 42.0854 36.5848 40.9096L33.2107 37.5355L25.0898 45.6619ZM52.0009 31.8755C52.0009 31.3013 51.9407 30.7435 51.8259 30.2075C51.6946 29.5951 50.9454 29.4365 50.5025 29.8794L47.008 33.3739C46.844 33.5379 46.6198 33.6309 46.3901 33.6309H43.2511C42.7699 33.6309 42.3761 33.2372 42.3761 32.7559V29.6115C42.3761 29.3818 42.4691 29.1576 42.6331 28.9935L46.1276 25.4991C46.5706 25.0561 46.412 24.3069 45.7995 24.1757C45.2581 24.0608 44.7003 24.0007 44.1261 24.0007C39.7785 24.0007 36.2513 27.5279 36.2513 31.8755V31.9192L40.916 36.584C42.8847 36.0863 45.0612 36.6113 46.6034 38.1534L47.4619 39.012C50.1416 37.7542 52.0009 35.0309 52.0009 31.8755ZM27.064 47.6251C27.064 47.277 27.2023 46.9432 27.4484 46.697C27.6945 46.4509 28.0284 46.3126 28.3764 46.3126C28.7245 46.3126 29.0584 46.4509 29.3045 46.697C29.5506 46.9432 29.6889 47.277 29.6889 47.6251C29.6889 47.9732 29.5506 48.307 29.3045 48.5532C29.0584 48.7993 28.7245 48.9376 28.3764 48.9376C28.0284 48.9376 27.6945 48.7993 27.4484 48.5532C27.2023 48.307 27.064 47.9732 27.064 47.6251Z" fill="white"/>
</svg>
