<svg width="76" height="76" viewBox="0 0 76 76" fill="none" xmlns="http://www.w3.org/2000/svg">
<circle cx="38" cy="38" r="38" fill="#0065FF"/>
<path d="M38.17 29.06L33.33 32.98C32.525 33.63 32.37 34.8 32.98 35.635C33.625 36.525 34.88 36.7 35.745 36.025L40.71 32.165C41.06 31.895 41.56 31.955 41.835 32.305C42.11 32.655 42.045 33.155 41.695 33.43L40.65 34.24L49.51 42.4H51.6C52.925 42.4 54 41.325 54 40V33.6C54 32.275 52.925 31.2 51.6 31.2H47.8H47.6H47.565L47.37 31.075L43.74 28.75C42.975 28.26 42.08 28 41.17 28C40.08 28 39.02 28.375 38.17 29.06ZM39.31 35.28L36.725 37.29C35.15 38.52 32.865 38.2 31.685 36.58C30.575 35.055 30.855 32.925 32.32 31.74L36.48 28.375C35.9 28.13 35.275 28.005 34.64 28.005C33.7 28 32.785 28.28 32 28.8L28.4 31.2H24.4C23.075 31.2 22 32.275 22 33.6V40C22 41.325 23.075 42.4 24.4 42.4H29.81L34.38 46.57C35.36 47.465 36.875 47.395 37.77 46.415C38.045 46.11 38.23 45.755 38.325 45.385L39.175 46.165C40.15 47.06 41.67 46.995 42.565 46.02C42.79 45.775 42.955 45.49 43.06 45.195C44.03 45.845 45.35 45.71 46.165 44.82C47.06 43.845 46.995 42.325 46.02 41.43L39.31 35.28Z" fill="white"/>
</svg>
