<svg width="64" height="48" viewBox="0 0 64 48" fill="none" xmlns="http://www.w3.org/2000/svg">
<g clip-path="url(#clip0_372_675)">
<mask id="mask0_372_675" style="mask-type:luminance" maskUnits="userSpaceOnUse" x="0" y="0" width="64" height="48">
<rect width="64" height="48" fill="white"/>
</mask>
<g mask="url(#mask0_372_675)">
<path fill-rule="evenodd" clip-rule="evenodd" d="M0 0H64V48H0V0Z" fill="#F7FCFF"/>
<path fill-rule="evenodd" clip-rule="evenodd" d="M0 0V16H64V0H0Z" fill="#C51918"/>
<path fill-rule="evenodd" clip-rule="evenodd" d="M0 32V48H64V32H0Z" fill="#409100"/>
<path fill-rule="evenodd" clip-rule="evenodd" d="M32.0405 17.26L30.8582 18.0954L31.2753 16.6954L30.1274 15.8118L31.5676 15.782L32.0405 14.4004L32.5135 15.782L33.9537 15.8118L32.8058 16.6954L33.2229 18.0954L32.0405 17.26ZM27.0464 18.4856L25.864 19.321L26.2812 17.921L25.1333 17.0373L26.5735 17.0075L27.0464 15.626L27.5194 17.0075L28.9595 17.0373L27.8117 17.921L28.2288 19.321L27.0464 18.4856ZM21.9793 22.9977L23.1616 22.1623L24.344 22.9977L23.9269 21.5978L25.0748 20.7141L23.6346 20.6843L23.1616 19.3027L22.6887 20.6843L21.2485 20.7141L22.3964 21.5978L21.9793 22.9977ZM21.9131 26.9279L20.7307 27.7634L21.1479 26.3634L20 25.4797L21.4402 25.4499L21.9131 24.0684L22.3861 25.4499L23.8262 25.4797L22.6784 26.3634L23.0955 27.7634L21.9131 26.9279ZM40.8465 27.7634L42.0288 26.9279L43.2112 27.7634L42.7941 26.3634L43.9419 25.4797L42.5018 25.4499L42.0288 24.0684L41.5559 25.4499L40.1157 25.4797L41.2636 26.3634L40.8465 27.7634ZM40.503 22.1623L39.3206 22.9977L39.7377 21.5978L38.5898 20.7141L40.03 20.6843L40.503 19.3027L40.9759 20.6843L42.4161 20.7141L41.2682 21.5978L41.6853 22.9977L40.503 22.1623ZM35.4944 19.321L36.6768 18.4856L37.8591 19.321L37.442 17.921L38.5899 17.0373L37.1497 17.0075L36.6768 15.626L36.2038 17.0075L34.7637 17.0373L35.9115 17.921L35.4944 19.321ZM25.3347 33.5094L24.966 32.1967C27.0061 31.6447 29.3482 31.3701 31.9929 31.3701C34.6375 31.3701 36.9797 31.6447 39.0198 32.1967L38.6511 33.5094C36.7388 32.992 34.5193 32.7318 31.9929 32.7318C29.4665 32.7318 27.2469 32.992 25.3347 33.5094ZM27.8612 31.4047C27.0472 31.543 26.3815 30.7562 26.3815 30.7562L27.1891 30.4225C27.1635 29.8627 27.5012 29.5156 27.5012 29.5156C27.7743 29.6414 28.1471 30.3288 28.1471 30.3288H28.8791C28.8791 30.3288 28.6751 31.2664 27.8612 31.4047ZM37.4806 30.8919C37.4806 30.8919 36.815 31.6787 36.001 31.5404C35.1871 31.4022 34.9831 30.4646 34.9831 30.4646H35.7151C35.7151 30.4646 36.0879 29.7771 36.361 29.6514C36.361 29.6514 36.6987 29.9984 36.6731 30.5583L37.4806 30.8919ZM31.891 31.1547C31.0657 31.1784 30.516 30.3066 30.516 30.3066L31.3621 30.0886C31.4147 29.5306 31.7974 29.234 31.7974 29.234C32.0504 29.3965 32.3238 30.1291 32.3238 30.1291L33.0488 30.231C33.0488 30.231 32.7163 31.1311 31.891 31.1547Z" fill="#FFBB00"/>
<path fill-rule="evenodd" clip-rule="evenodd" d="M31.9171 27.3975C31.9171 27.3975 30.9791 29.5441 29.5018 29.7101C28.0245 29.8761 27.2742 28.4892 27.2742 28.4892C27.2742 28.4892 27.1774 29.9315 25.4229 30.4874C23.6685 31.0433 22.7446 28.8222 22.7446 28.8222C22.7446 28.8222 23.658 29.6392 25.0747 29.2832C26.4914 28.9272 27.0506 27.6123 27.0506 27.6123C27.0506 27.6123 28.099 28.9831 29.5018 28.2977C30.9046 27.6123 31.6806 26.7747 31.6806 25.9709V23.5673C31.6806 23.5673 31.3187 22.944 30.6909 22.944C30.0631 22.944 29.8879 23.3859 29.8879 23.3859C29.8879 23.3859 29.6428 20.8852 31.9008 20.7307L31.9007 20.7246C31.9217 20.7252 31.9425 20.726 31.9631 20.727C31.9837 20.726 32.0046 20.7252 32.0256 20.7246L32.0255 20.7307C34.2835 20.8852 34.0384 23.3859 34.0384 23.3859C34.0384 23.3859 33.8632 22.944 33.2354 22.944C32.6075 22.944 32.2456 23.5673 32.2456 23.5673V25.9709C32.2456 26.7747 33.0217 27.6123 34.4245 28.2977C35.8273 28.9831 36.8757 27.6123 36.8757 27.6123C36.8757 27.6123 37.4349 28.9272 38.8516 29.2832C40.2682 29.6392 41.1816 28.8222 41.1816 28.8222C41.1816 28.8222 40.2578 31.0433 38.5033 30.4874C36.7489 29.9315 36.6521 28.4892 36.6521 28.4892C36.6521 28.4892 35.9018 29.8761 34.4245 29.7101C32.9472 29.5441 32.0092 27.3975 32.0092 27.3975L31.9631 24.5644L31.9171 27.3975ZM31.8962 21.4043C30.8545 21.4043 30.6436 22.2861 30.6436 22.2861C31.5608 22.2861 31.8962 22.6859 31.8962 22.6859C31.8962 22.6859 32.5753 22.2861 33.259 22.2861C33.259 22.2861 32.9378 21.4043 31.8962 21.4043Z" fill="#FFBB00"/>
</g>
</g>
<defs>
<clipPath id="clip0_372_675">
<rect width="64" height="48" rx="8" fill="white"/>
</clipPath>
</defs>
</svg>
