<svg width="64" height="48" viewBox="0 0 64 48" fill="none" xmlns="http://www.w3.org/2000/svg">
<mask id="mask0_372_490" style="mask-type:luminance" maskUnits="userSpaceOnUse" x="0" y="0" width="64" height="48">
<rect width="64" height="48" fill="white"/>
</mask>
<g mask="url(#mask0_372_490)">
<path fill-rule="evenodd" clip-rule="evenodd" d="M0 32H64V48H0V32Z" fill="#14DC5A"/>
<path fill-rule="evenodd" clip-rule="evenodd" d="M0 0H64V20H0V0Z" fill="#0099B5"/>
<path d="M-4 19H-5V20V32V33H-4H68H69V32V20V19H68H-4Z" fill="#F7FCFF" stroke="#C51918" stroke-width="2"/>
<path fill-rule="evenodd" clip-rule="evenodd" d="M29.0825 6.01225L27.7364 6.76019L28.1209 5.24009L26.8314 4.12306H28.5156L29.0805 2.68457L29.7428 4.12306H31.1785L30.0504 5.24009L30.5929 6.76019L29.0825 6.01225ZM21.8663 10.594L23.2124 9.84602L24.7227 10.594L24.1803 9.07386L25.3084 7.95682H23.8727L23.2103 6.51833L22.6455 7.95682H20.9613L22.2507 9.07386L21.8663 10.594ZM16.8553 13.9216L15.5093 14.6696L15.8937 13.1495L14.6043 12.0324H16.2884L16.8533 10.594L17.5156 12.0324H18.9514L17.8233 13.1495L18.3657 14.6696L16.8553 13.9216ZM23.2124 13.9216L21.8663 14.6696L22.2507 13.1495L20.9613 12.0324H22.6455L23.2103 10.594L23.8727 12.0324H25.3084L24.1803 13.1495L24.7227 14.6696L23.2124 13.9216ZM29.1722 13.9216L27.8262 14.6696L28.2106 13.1495L26.9212 12.0324H28.6053L29.1702 10.594L29.8325 12.0324H31.2683L30.1402 13.1495L30.6826 14.6696L29.1722 13.9216ZM27.8262 10.594L29.1722 9.84602L30.6826 10.594L30.1402 9.07386L31.2683 7.95682H29.8325L29.1702 6.51833L28.6053 7.95682H26.9212L28.2106 9.07386L27.8262 10.594ZM33.8249 14.6696L35.171 13.9216L36.6813 14.6696L36.1389 13.1495L37.267 12.0324H35.8313L35.1689 10.594L34.6041 12.0324H32.9199L34.2093 13.1495L33.8249 14.6696ZM35.171 9.84602L33.8249 10.594L34.2093 9.07386L32.9199 7.95682H34.6041L35.1689 6.51833L35.8313 7.95682H37.267L36.1389 9.07386L36.6813 10.594L35.171 9.84602ZM33.7351 6.76019L35.0812 6.01225L36.5916 6.76019L36.0492 5.24009L37.1772 4.12306H35.7415L35.0792 2.68457L34.5143 4.12306H32.8302L34.1196 5.24009L33.7351 6.76019ZM41.2314 13.9216L39.8853 14.6696L40.2697 13.1495L38.9803 12.0324H40.6645L41.2293 10.594L41.8917 12.0324H43.3274L42.1993 13.1495L42.7417 14.6696L41.2314 13.9216ZM39.8853 10.594L41.2314 9.84602L42.7417 10.594L42.1993 9.07386L43.3274 7.95682H41.8917L41.2293 6.51833L40.6645 7.95682H38.9803L40.2697 9.07386L39.8853 10.594ZM41.1416 6.01225L39.7956 6.76019L40.18 5.24009L38.8906 4.12306H40.5747L41.1396 2.68457L41.8019 4.12306H43.2377L42.1096 5.24009L42.652 6.76019L41.1416 6.01225ZM11.7698 16.4812C11.7698 16.4812 6.93811 15.1708 7.0291 10.3238C7.12008 5.47683 12 4.21841 12 4.21841C10.0061 3.46333 4.11029 4.47654 4.00146 10.2747C3.89262 16.0728 9.91186 17.215 11.7698 16.4812Z" fill="#F7FCFF"/>
</g>
</svg>
