<svg width="20" height="16" viewBox="0 0 20 16" fill="none" xmlns="http://www.w3.org/2000/svg">
<mask id="mask0_603_107" style="mask-type:alpha" maskUnits="userSpaceOnUse" x="-1" y="0" width="22" height="16">
<rect x="-0.664185" width="21.3333" height="16" fill="white"/>
</mask>
<g mask="url(#mask0_603_107)">
<path fill-rule="evenodd" clip-rule="evenodd" d="M-0.660461 10.667H20.6729V16.0003H-0.660461V10.667Z" fill="#14DC5A"/>
<path fill-rule="evenodd" clip-rule="evenodd" d="M-0.660461 0H20.6729V6.66667H-0.660461V0Z" fill="#0099B5"/>
<path d="M-1.9953 6.33365H-2.32864V6.66699V10.667V11.0003H-1.9953H22.0047H22.338V10.667V6.66699V6.33365H22.0047H-1.9953Z" fill="#F7FCFF" stroke="#C51918" stroke-width="0.666676"/>
<path fill-rule="evenodd" clip-rule="evenodd" d="M9.03248 2.00571L8.58379 2.25502L8.71193 1.74832L8.28212 1.37598H8.84351L9.0318 0.896484L9.25258 1.37598H9.73115L9.35513 1.74832L9.53593 2.25502L9.03248 2.00571ZM6.62641 3.53281L7.07511 3.2835L7.57856 3.53281L7.39776 3.02611L7.77378 2.65377H7.29521L7.07443 2.17427L6.88614 2.65377H6.32475L6.75456 3.02611L6.62641 3.53281ZM4.95551 4.64202L4.50682 4.89133L4.63497 4.38463L4.20516 4.01229H4.76655L4.95484 3.53279L5.17562 4.01229H5.65419L5.27817 4.38463L5.45897 4.89133L4.95551 4.64202ZM7.07511 4.64202L6.62641 4.89133L6.75456 4.38463L6.32475 4.01229H6.88614L7.07443 3.53279L7.29521 4.01229H7.77378L7.39776 4.38463L7.57856 4.89133L7.07511 4.64202ZM9.06042 4.64202L8.61173 4.89133L8.73988 4.38463L8.31006 4.01229H8.87146L9.05974 3.53279L9.28052 4.01229H9.75909L9.38307 4.38463L9.56387 4.89133L9.06042 4.64202ZM8.61173 3.53281L9.06042 3.2835L9.56387 3.53281L9.38307 3.02611L9.75909 2.65377H9.28052L9.05974 2.17427L8.87146 2.65377H8.31006L8.73988 3.02611L8.61173 3.53281ZM10.6136 4.89133L11.0623 4.64202L11.5657 4.89133L11.3849 4.38463L11.761 4.01229H11.2824L11.0616 3.53279L10.8733 4.01229H10.3119L10.7417 4.38463L10.6136 4.89133ZM11.0623 3.2835L10.6136 3.53281L10.7417 3.02611L10.3119 2.65377H10.8733L11.0616 2.17427L11.2824 2.65377H11.761L11.3849 3.02611L11.5657 3.53281L11.0623 3.2835ZM10.5822 2.25502L11.0309 2.00571L11.5343 2.25502L11.3535 1.74832L11.7295 1.37598H11.251L11.0302 0.896484L10.8419 1.37598H10.2805L10.7103 1.74832L10.5822 2.25502ZM13.0825 4.64202L12.6338 4.89133L12.7619 4.38463L12.3321 4.01229H12.8935L13.0818 3.53279L13.3026 4.01229H13.7812L13.4051 4.38463L13.5859 4.89133L13.0825 4.64202ZM12.6338 3.53281L13.0825 3.2835L13.5859 3.53281L13.4051 3.02611L13.7812 2.65377H13.3026L13.0818 2.17427L12.8935 2.65377H12.3321L12.7619 3.02611L12.6338 3.53281ZM13.0519 2.00571L12.6032 2.25502L12.7314 1.74832L12.3016 1.37598H12.863L13.0513 0.896484L13.272 1.37598H13.7506L13.3746 1.74832L13.5554 2.25502L13.0519 2.00571ZM3.26132 5.49527C3.26132 5.49527 1.65076 5.05845 1.68109 3.44279C1.71141 1.82713 3.33805 1.40766 3.33805 1.40766C2.67341 1.15597 0.708152 1.4937 0.671872 3.42641C0.635593 5.35912 2.64201 5.73986 3.26132 5.49527Z" fill="#F7FCFF"/>
</g>
</svg>
