<svg width="48" height="96" viewBox="0 0 48 96" fill="none" xmlns="http://www.w3.org/2000/svg">
<path fill-rule="evenodd" clip-rule="evenodd" d="M37.4593 0.474118C32.9257 1.83911 29.4534 4.50041 27.407 8.17819C25.7464 11.1627 25.5035 14.6792 26.7423 17.8032C27.0907 18.6819 27.4433 19.463 27.5256 19.539C27.7366 19.7337 29.5593 18.9434 31.3235 17.8923C35.1517 15.6109 38.285 11.935 39.7531 8.00241C40.6202 5.67954 40.4389 0.254744 39.4856 0.00396523C39.349 -0.0318938 38.4371 0.179511 37.4593 0.474118ZM11.6825 9.12928C10.3762 11.788 10.0488 13.3274 10.0539 16.7914C10.0577 19.6179 10.1321 20.1556 10.7521 21.8304C11.5463 23.9768 13.2956 26.5045 14.8229 27.7122C16.1492 28.7613 18.6645 29.8772 20.1171 30.0609L21.2372 30.2025L21.5509 28.909C23.2534 21.8897 21.575 14.5653 17.3041 10.3747C16.1761 9.26779 13.5577 7.65085 12.8935 7.65085C12.5448 7.65085 12.2054 8.06523 11.6825 9.12928ZM34.5236 24.1983C32.3268 24.8789 30.2624 26.2034 28.7166 27.9241C27.7506 28.9994 26.4105 31.2215 26.4105 31.7479C26.4105 31.8689 26.9533 32.1803 27.617 32.4398C32.6065 34.3912 40.0091 33.4441 44.7227 30.2512C45.9018 29.4527 48 27.2646 48 26.8338C48 26.7187 47.2947 26.2041 46.4324 25.6898C42.8955 23.5805 38.3541 23.0117 34.5236 24.1983ZM4.10331 25.8734C3.38654 27.1638 2.99005 30.9311 3.30297 33.4795C4.24605 41.1613 9.42549 46.3079 16.2241 46.3196L17.8487 46.3224L17.6993 43.4513C17.5185 39.9737 16.7263 37.0551 15.1391 34.0178C12.8834 29.7018 9.65815 26.8594 5.85434 25.8347C4.18484 25.3852 4.37661 25.3809 4.10331 25.8734ZM32.9214 36.1316C29.2807 36.9833 26.1113 39.359 24.5053 42.4398C23.957 43.4921 23.5219 44.732 23.4381 45.4817L23.2966 46.7473L25.0441 46.9224C30.0701 47.4261 36.5672 45.1808 40.1709 41.6947C41.5163 40.393 42.9201 38.2881 42.9201 37.5723C42.9201 37.3691 42.1261 37.0019 40.8371 36.6088C38.2428 35.8176 35.0793 35.6268 32.9214 36.1316ZM0.0924952 45.7236C-0.192486 46.4089 0.222286 50.3428 0.774468 52.1911C2.25296 57.1394 5.81345 61.1863 10.0727 62.7595C11.3045 63.2144 11.9982 63.3039 14.2189 63.2938C16.0837 63.2856 17.1677 63.1689 17.823 62.9059C18.7501 62.534 18.7577 62.5199 18.5065 61.6331C17.5571 58.2822 16.4479 55.9446 14.5485 53.292C11.2245 48.65 6.75602 45.8237 2.1755 45.4665C0.502949 45.3359 0.240066 45.3683 0.0924952 45.7236ZM33.3357 48.3244C30.4018 49.0533 27.171 51.2534 25.7504 53.4895C24.4332 55.563 23.611 58.9176 23.9781 60.7225C24.1368 61.5037 24.2084 61.5567 25.1076 61.5567C28.2975 61.5567 34.6623 58.2457 37.4009 55.162C39.6446 52.635 41.466 48.6786 40.6141 48.181C40.0508 47.8519 34.8226 47.9548 33.3357 48.3244ZM38.8562 59.1098C33.8086 60.1139 29.5329 63.727 28.3239 68.0101C27.6985 70.2256 27.8713 73.2169 28.7407 75.2255C29.1021 76.0601 29.6599 75.965 32.0558 74.6602C35.3392 72.8722 38.0384 70.1026 39.9728 66.5368C41.1633 64.3424 41.6502 62.5766 41.6502 60.4528C41.6502 58.4829 41.7551 58.5332 38.8562 59.1098ZM4.18611 65.5654C2.47623 65.7805 1.51918 66.1544 1.51918 66.6072C1.51918 67.3262 2.82775 70.5917 3.71724 72.092C6.79208 77.2784 11.6987 80.3707 16.8088 80.3421C19.0391 80.3297 20.3942 80.0435 22.2153 79.2003C24.1851 78.2883 24.1851 78.2883 23.5734 77.1781C22.1435 74.5829 19.0744 71.21 16.4352 69.3327C12.3472 66.4248 7.99449 65.0861 4.18611 65.5654ZM42.6484 69.9264C40.2047 71.0767 37.4453 73.5427 36.3468 75.5581C34.8393 78.3237 34.4576 81.0982 35.184 84.0103C35.6353 85.8197 37.0176 88.3572 37.6079 88.4594C38.1969 88.5614 40.7213 86.5523 42.0431 84.9295C43.4842 83.1605 44.7547 80.7309 45.5025 78.3143C46.5289 74.9968 46.1789 69.3306 44.9338 69.1093C44.7143 69.0702 43.6859 69.4379 42.6484 69.9264ZM12.288 84.0305C10.1425 84.5974 8.29217 85.6209 8.4974 86.1274C9.30306 88.1144 12.8201 91.9183 15.2729 93.4553C20.8768 96.9669 27.5065 96.8335 31.9126 93.1206L33.2549 91.9895L32.6903 91.2763C31.8333 90.1947 28.5268 87.6478 26.6076 86.5912C21.7609 83.9229 16.3552 82.9561 12.288 84.0305Z" fill="#CBD5E1"/>
</svg>
