<svg width="48" height="96" viewBox="0 0 48 96" fill="none" xmlns="http://www.w3.org/2000/svg">
<path fill-rule="evenodd" clip-rule="evenodd" d="M10.5407 0.474118C15.0743 1.83911 18.5466 4.50041 20.593 8.17819C22.2536 11.1627 22.4965 14.6792 21.2577 17.8032C20.9093 18.6819 20.5567 19.463 20.4744 19.539C20.2634 19.7337 18.4407 18.9434 16.6765 17.8923C12.8483 15.6109 9.715 11.935 8.24691 8.00241C7.37978 5.67954 7.56113 0.254744 8.51437 0.00396523C8.65102 -0.0318938 9.56285 0.179511 10.5407 0.474118ZM36.3175 9.12928C37.6238 11.788 37.9512 13.3274 37.9461 16.7914C37.9423 19.6179 37.8679 20.1556 37.2479 21.8304C36.4537 23.9768 34.7044 26.5045 33.1771 27.7122C31.8508 28.7613 29.3355 29.8772 27.8829 30.0609L26.7628 30.2025L26.4491 28.909C24.7466 21.8897 26.425 14.5653 30.6959 10.3747C31.8239 9.26779 34.4423 7.65085 35.1065 7.65085C35.4552 7.65085 35.7946 8.06523 36.3175 9.12928ZM13.4764 24.1983C15.6732 24.8789 17.7376 26.2034 19.2834 27.9241C20.2494 28.9994 21.5895 31.2215 21.5895 31.7479C21.5895 31.8689 21.0467 32.1803 20.383 32.4398C15.3935 34.3912 7.99089 33.4441 3.27728 30.2512C2.09824 29.4527 -3.8147e-06 27.2646 -3.8147e-06 26.8338C-3.8147e-06 26.7187 0.705338 26.2041 1.56765 25.6898C5.10451 23.5805 9.64591 23.0117 13.4764 24.1983ZM43.8967 25.8734C44.6135 27.1638 45.0099 30.9311 44.697 33.4795C43.7539 41.1613 38.5745 46.3079 31.7759 46.3196L30.1513 46.3224L30.3007 43.4513C30.4815 39.9737 31.2737 37.0551 32.8609 34.0178C35.1166 29.7018 38.3419 26.8594 42.1457 25.8347C43.8152 25.3852 43.6234 25.3809 43.8967 25.8734ZM15.0786 36.1316C18.7193 36.9833 21.8887 39.359 23.4947 42.4398C24.043 43.4921 24.4781 44.732 24.5619 45.4817L24.7034 46.7473L22.9559 46.9224C17.9299 47.4261 11.4328 45.1808 7.8291 41.6947C6.48369 40.393 5.07987 38.2881 5.07987 37.5723C5.07987 37.3691 5.87386 37.0019 7.16287 36.6088C9.75716 35.8176 12.9207 35.6268 15.0786 36.1316ZM47.9075 45.7236C48.1925 46.4089 47.7777 50.3428 47.2255 52.1911C45.747 57.1394 42.1866 61.1863 37.9273 62.7595C36.6955 63.2144 36.0018 63.3039 33.7811 63.2938C31.9163 63.2856 30.8323 63.1689 30.177 62.9059C29.2499 62.534 29.2423 62.5199 29.4935 61.6331C30.4429 58.2822 31.5521 55.9446 33.4515 53.292C36.7755 48.65 41.244 45.8237 45.8245 45.4665C47.4971 45.3359 47.7599 45.3683 47.9075 45.7236ZM14.6643 48.3244C17.5982 49.0533 20.829 51.2534 22.2496 53.4895C23.5668 55.563 24.389 58.9176 24.0219 60.7225C23.8632 61.5037 23.7916 61.5567 22.8924 61.5567C19.7025 61.5567 13.3377 58.2457 10.5991 55.162C8.35537 52.635 6.53398 48.6786 7.38588 48.181C7.94923 47.8519 13.1774 47.9548 14.6643 48.3244ZM9.14376 59.1098C14.1914 60.1139 18.4671 63.727 19.6761 68.0101C20.3015 70.2256 20.1287 73.2169 19.2593 75.2255C18.8979 76.0601 18.3401 75.965 15.9442 74.6602C12.6608 72.8722 9.96163 70.1026 8.02721 66.5368C6.83674 64.3424 6.34984 62.5766 6.34984 60.4528C6.34984 58.4829 6.24494 58.5332 9.14376 59.1098ZM43.8139 65.5654C45.5238 65.7805 46.4808 66.1544 46.4808 66.6072C46.4808 67.3262 45.1722 70.5917 44.2828 72.092C41.2079 77.2784 36.3013 80.3707 31.1912 80.3421C28.9609 80.3297 27.6058 80.0435 25.7847 79.2003C23.8149 78.2883 23.8149 78.2883 24.4266 77.1781C25.8565 74.5829 28.9256 71.21 31.5648 69.3327C35.6528 66.4248 40.0055 65.0861 43.8139 65.5654ZM5.35164 69.9264C7.79531 71.0767 10.5547 73.5427 11.6532 75.5581C13.1607 78.3237 13.5424 81.0982 12.816 84.0103C12.3647 85.8197 10.9824 88.3572 10.3921 88.4594C9.80313 88.5614 7.27869 86.5523 5.95691 84.9295C4.51575 83.1605 3.24527 80.7309 2.49751 78.3143C1.47113 74.9968 1.82113 69.3306 3.06621 69.1093C3.28566 69.0702 4.31408 69.4379 5.35164 69.9264ZM35.712 84.0305C37.8575 84.5974 39.7078 85.6209 39.5026 86.1274C38.6969 88.1144 35.1799 91.9183 32.7271 93.4553C27.1232 96.9669 20.4935 96.8335 16.0874 93.1206L14.7451 91.9895L15.3097 91.2763C16.1667 90.1947 19.4732 87.6478 21.3924 86.5912C26.2391 83.9229 31.6448 82.9561 35.712 84.0305Z" fill="#CBD5E1"/>
</svg>
